<?xml version="1.0" encoding="UTF-8" standalone="no"?>
<!-- Created with Inkscape (http://www.inkscape.org/) -->

<svg
   width="72"
   height="72"
   viewBox="0 0 19.05 19.05"
   version="1.1"
   id="svg5"
   inkscape:version="1.4.3 (0d15f75042, 2025-12-25)"
   sodipodi:docname="お知らせ.svg"
   inkscape:export-filename="お知らせ.webp"
   inkscape:export-xdpi="96"
   inkscape:export-ydpi="96"
   xmlns:inkscape="http://www.inkscape.org/namespaces/inkscape"
   xmlns:sodipodi="http://sodipodi.sourceforge.net/DTD/sodipodi-0.dtd"
   xmlns="http://www.w3.org/2000/svg"
   xmlns:svg="http://www.w3.org/2000/svg"
   xmlns:rdf="http://www.w3.org/1999/02/22-rdf-syntax-ns#"
   xmlns:cc="http://creativecommons.org/ns#">
  <sodipodi:namedview
     id="namedview7"
     pagecolor="#000000"
     bordercolor="#666666"
     borderopacity="1.0"
     inkscape:pageshadow="2"
     inkscape:pageopacity="0.0"
     inkscape:pagecheckerboard="false"
     inkscape:document-units="px"
     showgrid="false"
     units="px"
     inkscape:zoom="8"
     inkscape:cx="37.1875"
     inkscape:cy="36.5"
     inkscape:window-width="1920"
     inkscape:window-height="1052"
     inkscape:window-x="1920"
     inkscape:window-y="0"
     inkscape:window-maximized="1"
     inkscape:current-layer="layer1"
     inkscape:showpageshadow="2"
     inkscape:deskcolor="#d1d1d1"
     showguides="true"
     inkscape:lockguides="true">
    <sodipodi:guide
       position="0,10.054167"
       orientation="0,1"
       id="guide2"
       inkscape:locked="true"
       inkscape:label=""
       inkscape:color="rgb(0,134,229)" />
  </sodipodi:namedview>
  <defs
     id="defs2" />
  <g
     inkscape:label="レイヤー 1"
     inkscape:groupmode="layer"
     id="layer1">
    <path
       id="path1"
       style="fill:#ffffff;stroke-width:1.32292;stroke-linecap:square;stroke-opacity:0.4;paint-order:stroke markers fill"
       d="m 17.4625,13.758333 c 0,0 -1.5875,-4.7625 -1.5875,-7.408333 C 15.875,2.8429918 13.032008,-5.5228476e-8 9.525,0 6.0179918,-5.5228477e-8 3.1750002,2.8429918 3.175,6.35 c -10e-8,2.645833 -1.5874999,7.408333 -1.5874999,7.408333 h 1.8520832 c 0,0 1.3229166,-4.7625 1.3229167,-7.408333 10e-8,-2.630256 2.1322438,-4.7624998 4.7625,-4.7625 2.630256,2e-7 4.7625,2.132244 4.7625,4.7625 0,2.645833 1.322916,7.408333 1.322916,7.408333 z"
       sodipodi:nodetypes="csssccssscc" />
    <rect
       style="fill:#ffffff;fill-opacity:1;stroke-width:2.64583;stroke-linecap:round;stroke-linejoin:round;paint-order:stroke fill markers"
       id="rect1"
       width="15.875"
       height="1.5875001"
       x="1.5875001"
       y="13.758333" />
    <path
       id="path2"
       style="fill:#ffffff;fill-opacity:1;stroke-width:2.64583;stroke-linecap:round;stroke-linejoin:round;paint-order:stroke fill markers"
       d="M 6.35 15.875 A 3.175 3.175 0 0 0 9.525 19.05 A 3.175 3.175 0 0 0 12.7 15.875 L 11.1125 15.875 A 1.5875 1.5875 0 0 1 9.525 17.4625 A 1.5875 1.5875 0 0 1 7.9375 15.875 L 6.35 15.875 z " />
    <rect
       style="fill:#ffffff;fill-opacity:1;stroke-width:1.32292;stroke-linecap:square;stroke-opacity:0.4;paint-order:stroke markers fill"
       id="rect2"
       width="8.9958334"
       height="1.5875"
       x="6.3500004"
       y="10.31875" />
  </g>
  <metadata
     id="metadata824">
    <rdf:RDF>
      <cc:Work
         rdf:about="">
        <cc:license
           rdf:resource="http://creativecommons.org/publicdomain/zero/1.0/" />
      </cc:Work>
      <cc:License
         rdf:about="http://creativecommons.org/publicdomain/zero/1.0/">
        <cc:permits
           rdf:resource="http://creativecommons.org/ns#Reproduction" />
        <cc:permits
           rdf:resource="http://creativecommons.org/ns#Distribution" />
        <cc:permits
           rdf:resource="http://creativecommons.org/ns#DerivativeWorks" />
      </cc:License>
    </rdf:RDF>
  </metadata>
</svg>
