<?xml version="1.0" encoding="UTF-8" standalone="no"?>
<!-- Created with Inkscape (http://www.inkscape.org/) -->

<svg
   width="1000"
   height="1000"
   viewBox="0 0 264.58333 264.58334"
   version="1.1"
   id="svg5"
   inkscape:version="1.4 (e7c3feb100, 2024-10-09)"
   sodipodi:docname="アイコン.svg"
   xml:space="preserve"
   inkscape:export-filename="icon_2048.webp"
   inkscape:export-xdpi="196.608"
   inkscape:export-ydpi="196.608"
   xmlns:inkscape="http://www.inkscape.org/namespaces/inkscape"
   xmlns:sodipodi="http://sodipodi.sourceforge.net/DTD/sodipodi-0.dtd"
   xmlns:xlink="http://www.w3.org/1999/xlink"
   xmlns="http://www.w3.org/2000/svg"
   xmlns:svg="http://www.w3.org/2000/svg"
   xmlns:rdf="http://www.w3.org/1999/02/22-rdf-syntax-ns#"
   xmlns:cc="http://creativecommons.org/ns#"><sodipodi:namedview
     id="namedview7"
     pagecolor="#ffffff"
     bordercolor="#666666"
     borderopacity="1.0"
     inkscape:pageshadow="2"
     inkscape:pageopacity="0.0"
     inkscape:pagecheckerboard="false"
     inkscape:document-units="px"
     showgrid="false"
     units="px"
     inkscape:zoom="0.59326258"
     inkscape:cx="363.24556"
     inkscape:cy="518.32024"
     inkscape:window-width="1920"
     inkscape:window-height="1052"
     inkscape:window-x="1920"
     inkscape:window-y="0"
     inkscape:window-maximized="1"
     inkscape:current-layer="layer1"
     inkscape:showpageshadow="2"
     inkscape:deskcolor="#d1d1d1"
     showguides="true"
     inkscape:lockguides="true"><sodipodi:guide
       position="0,84.666667"
       orientation="0,1"
       id="guide5"
       inkscape:locked="true"
       inkscape:label=""
       inkscape:color="rgb(0,134,229)" /><sodipodi:guide
       position="0,142.875"
       orientation="0,1"
       id="guide1"
       inkscape:locked="true"
       inkscape:label=""
       inkscape:color="rgb(0,134,229)" /></sodipodi:namedview><defs
     id="defs2"><linearGradient
       id="linearGradient3"
       inkscape:collect="always"><stop
         style="stop-color:#f7f7f7;stop-opacity:1;"
         offset="0"
         id="stop1" /><stop
         style="stop-color:#e7e7e7;stop-opacity:1;"
         offset="1"
         id="stop3" /></linearGradient><linearGradient
       id="linearGradient2"
       inkscape:collect="always"><stop
         style="stop-color:#333333;stop-opacity:1;"
         offset="0"
         id="stop2" /><stop
         style="stop-color:#222222;stop-opacity:1;"
         offset="1"
         id="stop7" /></linearGradient><linearGradient
       inkscape:collect="always"
       xlink:href="#linearGradient3"
       id="linearGradient7"
       x1="0"
       y1="0"
       x2="1.5011718e-06"
       y2="232.83333"
       gradientUnits="userSpaceOnUse"
       gradientTransform="matrix(1.25,0,0,1.1193182,-33.072916,-33.072917)" /><linearGradient
       inkscape:collect="always"
       xlink:href="#linearGradient2"
       id="linearGradient1"
       gradientUnits="userSpaceOnUse"
       gradientTransform="matrix(1,0,0,0.97727272,-2.6458336,-16.404167)"
       x1="0"
       y1="0"
       x2="0"
       y2="232.83333" /></defs><g
     inkscape:groupmode="layer"
     id="g300"
     inkscape:label="角丸背景_黒"
     style="display:none"
     inkscape:export-xdpi="196.608"
     inkscape:export-ydpi="196.608"
     transform="translate(2.6458336,16.404167)"><rect
       style="display:inline;fill:#ffffff;fill-opacity:1;stroke-width:0;stroke-linecap:round;stroke-linejoin:round"
       id="rect302"
       width="264.58334"
       height="37.041668"
       x="-2.6458325"
       y="211.1375" /><path
       id="rect301"
       style="display:inline;fill:url(#linearGradient1);fill-opacity:1;stroke:none;stroke-width:16.0278;stroke-linecap:round;paint-order:stroke fill markers"
       d="M -2.6458336,-16.404167 V 211.1375 H 261.93748 l 2e-5,-227.541667 z"
       sodipodi:nodetypes="ccccc" /></g><g
     inkscape:groupmode="layer"
     id="g100"
     inkscape:label="角丸背景"
     style="display:inline"
     inkscape:export-xdpi="196.608"
     inkscape:export-ydpi="196.608"><rect
       style="display:inline;fill:#202020;fill-opacity:1;stroke-width:0;stroke-linecap:round;stroke-linejoin:round"
       id="rect102"
       width="330.72916"
       height="70.114586"
       x="-33.072914"
       y="227.54166" /><path
       id="rect101"
       style="display:inline;fill:url(#linearGradient7);fill-opacity:1;stroke:none;stroke-width:16.0278;stroke-linecap:round;paint-order:stroke fill markers"
       d="M -33.072916,-33.072917 V 227.54167 H 297.65622 l 2e-5,-260.614587 z"
       sodipodi:nodetypes="ccccc" /></g><g
     inkscape:groupmode="layer"
     id="layer1"
     inkscape:label="車両_元データ"
     style="display:inline"
     transform="translate(0,5.2916667)"><circle
       style="display:inline;fill:#202020;fill-opacity:1;stroke-width:0;stroke-linecap:round;stroke-linejoin:round"
       id="path3"
       cx="209.02083"
       cy="203.72916"
       r="19.84375" /><circle
       style="display:inline;fill:#202020;fill-opacity:1;stroke-width:0;stroke-linecap:round;stroke-linejoin:round"
       id="path2"
       cx="119.06248"
       cy="203.72916"
       r="19.84375" /><path
       id="path1"
       style="display:inline;fill:#202020;fill-opacity:1;stroke:none;stroke-width:0;stroke-linecap:round;stroke-linejoin:round;stroke-opacity:1"
       d="m 156.10417,9.2604167 v 3.9687503 h 1.32292 v 9.260417 h 2.64583 v -9.260417 h 7.9375 v 9.260417 h 2.64583 v -9.260417 h 1.32292 V 9.2604167 Z M 85.989583,55.562501 v 15.875 H 67.468751 L 66.145834,58.208334 h -2.645833 l -1.322917,13.229167 h -9.260417 l -7.9375,3.96875 c 0,0 -13.229167,35.718759 -13.229167,75.406249 0,18.52084 2.645834,29.10417 2.645834,29.10417 H 21.166667 v 3.96875 h -3.96875 l -3.96875,2.64583 3.96875,2.64584 h 3.96875 v 3.96875 H 23.8125 v 3.96875 h -2.645833 v 6.61458 h 15.875 v -6.61458 h -7.9375 v -3.96875 h 5.291667 v 2.64583 H 39.6875 l -1.322916,15.875 h 10.583333 l 6.614583,-31.75 h 95.91146 c -1.82657,0 -3.30729,1.48072 -3.30729,3.30729 0,1.82657 1.48072,3.30729 3.30729,3.30729 h 5.95312 V 190.5 l -13.22916,-3.96875 H 99.218751 l -6.614585,9.26042 -9.260413,5.29166 -2e-6,18.52084 h 2.645834 l 2e-6,-14.55209 H 95.25 l 6.61458,-5.29166 v -2.64583 h 39.6875 l 3.96875,2.64583 h -19.84375 v 1.32292 h 15.875 v 5.29166 h -15.875 v 1.32292 h 22.48959 V 206.375 H 158.75 l 1.32292,-1.32291 h 7.9375 l 1.32291,1.32291 h 10.58334 v 1.32292 h 22.48958 V 206.375 h -15.875 v -5.29166 h 15.875 v -1.32292 H 182.5625 l 3.96875,-2.64583 h 29.10417 v -10.58334 h -31.75 L 170.65625,190.5 v -3.96875 h 5.95313 c 1.82657,0 3.30729,-1.48072 3.30729,-3.30729 0,-1.82657 -1.48072,-3.30729 -3.30729,-3.30729 h 66.80729 v 31.75 h 35.71875 v -31.75 h 9.26042 V 206.375 h 9.26041 V 179.91667 55.562501 H 222.25 l -7.9375,15.875 H 194.46875 V 60.854167 H 133.61458 V 71.437501 H 99.218752 v -15.875 z M 210.34375,95.249997 h 39.6875 v 42.333343 h -39.6875 c -1.46126,0 -2.64583,-1.18458 -2.64583,-2.64584 V 97.895837 c 0,-1.46125 1.18457,-2.64584 2.64583,-2.64584 z m 43.65625,0 h 39.6875 c 1.46126,0 2.64584,1.18458 2.64584,2.64584 V 134.9375 c 0,1.46126 -1.18458,2.64584 -2.64584,2.64584 H 254 Z m -129.64584,1.32292 h 13.22917 c 1.46125,0 2.64583,1.18459 2.64583,2.64583 v 34.395843 c 0,1.46125 -1.18458,2.64583 -2.64583,2.64583 h -13.22917 c -1.4612,0 -2.64583,-1.18458 -2.64583,-2.64583 V 99.218747 c 0,-1.46124 1.18463,-2.64583 2.64583,-2.64583 z m 26.45834,0 h 13.22916 c 1.46126,0 2.64584,1.18458 2.64584,2.64583 v 34.395843 c 0,1.46125 -1.18459,2.64583 -2.64584,2.64583 H 150.8125 c -1.46125,0 -2.64584,-1.18458 -2.64584,-2.64583 V 99.218747 c 0,-1.46125 1.18458,-2.64583 2.64584,-2.64583 z m -89.958333,1.32292 H 74.083334 V 129.64584 H 60.854167 Z M 248.70834,179.91667 h 25.13542 v 3.96875 h -25.13542 z"
       clip-path="none"
       sodipodi:nodetypes="cccccccccccccccccccccscccccccccccccccccccccccsscccccccccccccccccccccccccccccccccccccccccsscccccccccccccccccccsccsssscssssccsssssssssssssssssscccccccccc" /><g
       id="g10"
       transform="translate(-1.6919998e-6,5.2916654)"
       style="display:inline;stroke:#cccccc;stroke-opacity:1"><path
         id="rect11"
         style="fill:none;fill-opacity:0.501961;stroke:#cccccc;stroke-width:1.98438;stroke-dasharray:none;stroke-opacity:1;paint-order:stroke fill markers"
         d="m 59.53125,87.312501 c -1.461253,0 -2.645833,1.18458 -2.645833,2.645833 v 74.083336 c 0,1.46125 1.184581,2.64583 2.645833,2.64583 h 15.875 c 1.461252,0 2.645834,-1.18458 2.645834,-2.64583 V 89.958334 c 0,-1.461254 -1.18458,-2.645833 -2.645834,-2.645833 z"
         sodipodi:nodetypes="sssssssss" /><path
         id="rect12"
         style="fill:none;fill-opacity:0.501961;stroke:#cccccc;stroke-width:1.98438;stroke-dasharray:none;stroke-opacity:1;paint-order:stroke fill markers"
         d="m 120.38542,85.989584 c -2.19188,0 -3.96875,1.776867 -3.96875,3.96875 v 72.760416 c 0,2.19188 1.77687,3.96875 3.96875,3.96875 h 47.625 c 2.19188,0 3.96875,-1.77687 3.96875,-3.96875 V 89.958334 c 0,-2.191879 -1.77687,-3.96875 -3.96875,-3.96875 z"
         sodipodi:nodetypes="sssssssss" /><path
         style="fill:none;fill-opacity:0.501961;stroke:#cccccc;stroke-width:1.98438;stroke-dasharray:none;stroke-opacity:1;paint-order:stroke fill markers"
         d="M 144.19792,85.989582 V 166.6875"
         id="path13"
         sodipodi:nodetypes="cc" /></g><g
       id="g20"
       style="display:inline;stroke:#202020;stroke-opacity:1"
       transform="translate(0,5.2916664)"><path
         style="fill:none;fill-opacity:0.997312;stroke:#202020;stroke-width:2.64583;stroke-linecap:square;stroke-linejoin:bevel;stroke-dasharray:none;stroke-opacity:1;paint-order:stroke fill markers"
         d="m 60.854167,174.625 v 19.84375 H 74.083334 V 174.625"
         id="path21"
         sodipodi:nodetypes="cccc" /><path
         style="fill:#44ccee;fill-opacity:1;stroke:#202020;stroke-width:2.64583;stroke-dasharray:none;stroke-opacity:1;paint-order:stroke fill markers"
         d="M 60.854166,183.88542 H 74.083332"
         id="path22"
         sodipodi:nodetypes="cc" /><path
         style="fill:none;fill-opacity:1;stroke:#202020;stroke-width:2.64583;stroke-linecap:square;stroke-linejoin:bevel;stroke-dasharray:none;stroke-opacity:1;paint-order:stroke fill markers"
         d="M 185.20835,58.208334 128.32293,27.78125 164.04165,5.2916675 199.76043,27.78125 142.87501,58.208334"
         id="path23"
         sodipodi:nodetypes="ccccc" /></g></g><metadata
     id="metadata824"><rdf:RDF><cc:Work
         rdf:about=""><cc:license
           rdf:resource="http://creativecommons.org/publicdomain/zero/1.0/" /></cc:Work><cc:License
         rdf:about="http://creativecommons.org/publicdomain/zero/1.0/"><cc:permits
           rdf:resource="http://creativecommons.org/ns#Reproduction" /><cc:permits
           rdf:resource="http://creativecommons.org/ns#Distribution" /><cc:permits
           rdf:resource="http://creativecommons.org/ns#DerivativeWorks" /></cc:License></rdf:RDF></metadata></svg>
