<?xml version="1.0" encoding="UTF-8" standalone="no"?>
<!-- Created with Inkscape (http://www.inkscape.org/) -->

<svg
   width="1000"
   height="1000"
   viewBox="0 0 264.58333 264.58334"
   version="1.1"
   id="svg5"
   inkscape:version="1.4.3 (0d15f75042, 2025-12-25)"
   sodipodi:docname="アイコン.svg"
   xml:space="preserve"
   inkscape:export-filename="icon_2048.webp"
   inkscape:export-xdpi="196.608"
   inkscape:export-ydpi="196.608"
   xmlns:inkscape="http://www.inkscape.org/namespaces/inkscape"
   xmlns:sodipodi="http://sodipodi.sourceforge.net/DTD/sodipodi-0.dtd"
   xmlns:xlink="http://www.w3.org/1999/xlink"
   xmlns="http://www.w3.org/2000/svg"
   xmlns:svg="http://www.w3.org/2000/svg"
   xmlns:rdf="http://www.w3.org/1999/02/22-rdf-syntax-ns#"
   xmlns:cc="http://creativecommons.org/ns#"><sodipodi:namedview
     id="namedview7"
     pagecolor="#ffffff"
     bordercolor="#666666"
     borderopacity="1.0"
     inkscape:pageshadow="2"
     inkscape:pageopacity="0.0"
     inkscape:pagecheckerboard="false"
     inkscape:document-units="px"
     showgrid="false"
     units="px"
     inkscape:zoom="0.5"
     inkscape:cx="471"
     inkscape:cy="482"
     inkscape:window-width="1920"
     inkscape:window-height="1052"
     inkscape:window-x="1920"
     inkscape:window-y="0"
     inkscape:window-maximized="1"
     inkscape:current-layer="layer1"
     inkscape:showpageshadow="2"
     inkscape:deskcolor="#d1d1d1"
     showguides="true"
     inkscape:lockguides="true"><sodipodi:guide
       position="132.29167,264.58333"
       orientation="-1,0"
       id="guide1"
       inkscape:locked="true"
       inkscape:label=""
       inkscape:color="rgb(0,134,229)" /><sodipodi:guide
       position="0,89.958334"
       orientation="0,1"
       id="guide2"
       inkscape:locked="true"
       inkscape:label=""
       inkscape:color="rgb(0,134,229)" /><sodipodi:guide
       position="0,148.16667"
       orientation="0,1"
       id="guide3"
       inkscape:locked="true"
       inkscape:label=""
       inkscape:color="rgb(0,134,229)" /><sodipodi:guide
       position="0,277.8125"
       orientation="0,1"
       id="guide4"
       inkscape:locked="true"
       inkscape:label=""
       inkscape:color="rgb(0,134,229)" /><sodipodi:guide
       position="0,-13.229167"
       orientation="0,1"
       id="guide5"
       inkscape:locked="true"
       inkscape:label=""
       inkscape:color="rgb(0,134,229)" /></sodipodi:namedview><defs
     id="defs2"><linearGradient
       id="linearGradient1"
       inkscape:collect="always"><stop
         style="stop-color:#202020;stop-opacity:1;"
         offset="0.66000003"
         id="stop8" /><stop
         style="stop-color:#303030;stop-opacity:1;"
         offset="0.66000003"
         id="stop14" /><stop
         style="stop-color:#282828;stop-opacity:1;"
         offset="0.82999998"
         id="stop15" /><stop
         style="stop-color:#404040;stop-opacity:1;"
         offset="0.82999998"
         id="stop16" /><stop
         style="stop-color:#383838;stop-opacity:1;"
         offset="1"
         id="stop17" /></linearGradient><linearGradient
       id="linearGradient11"
       inkscape:collect="always"><stop
         style="stop-color:#ffffff;stop-opacity:1;"
         offset="0.66000003"
         id="stop6" /><stop
         style="stop-color:#efefef;stop-opacity:1;"
         offset="0.66000003"
         id="stop7" /><stop
         style="stop-color:#f7f7f7;stop-opacity:1;"
         offset="0.82999998"
         id="stop9" /><stop
         style="stop-color:#dfdfdf;stop-opacity:1;"
         offset="0.82999998"
         id="stop10" /><stop
         style="stop-color:#e7e7e7;stop-opacity:1;"
         offset="1"
         id="stop11" /></linearGradient><linearGradient
       inkscape:collect="always"
       xlink:href="#linearGradient1"
       id="linearGradient2"
       x1="-8.2706633"
       y1="89.336441"
       x2="272.854"
       y2="164.66357"
       gradientUnits="userSpaceOnUse" /><linearGradient
       inkscape:collect="always"
       xlink:href="#linearGradient1"
       id="linearGradient3"
       x1="-8.2706585"
       y1="94.628105"
       x2="272.854"
       y2="169.95523"
       gradientUnits="userSpaceOnUse" /><linearGradient
       inkscape:collect="always"
       xlink:href="#linearGradient1"
       id="linearGradient4"
       x1="-8.2706633"
       y1="89.336441"
       x2="272.854"
       y2="164.66357"
       gradientUnits="userSpaceOnUse" /><linearGradient
       inkscape:collect="always"
       xlink:href="#linearGradient11"
       id="linearGradient12"
       x1="-10.916483"
       y1="78.223938"
       x2="270.20816"
       y2="153.55106"
       gradientUnits="userSpaceOnUse" /></defs><g
     inkscape:groupmode="layer"
     id="g300"
     inkscape:label="背景_黒"
     style="display:none"
     inkscape:export-xdpi="196.608"
     inkscape:export-ydpi="196.608"
     transform="translate(2.6458336,16.404167)"><path
       id="rect301"
       style="display:inline;fill:#303030;fill-opacity:1;stroke:none;stroke-width:16.0278;stroke-linecap:round;paint-order:stroke fill markers"
       d="M -2.6458336,-16.404167 V 211.1375 H 261.93748 l 2e-5,-227.541667 z"
       sodipodi:nodetypes="ccccc" /><rect
       style="display:inline;fill:url(#linearGradient12);stroke-width:0;stroke-linecap:round;stroke-linejoin:round"
       id="rect302"
       width="264.58334"
       height="37.041668"
       x="-2.6458325"
       y="211.1375" /></g><g
     inkscape:groupmode="layer"
     id="g100"
     inkscape:label="背景"
     style="display:inline"
     inkscape:export-xdpi="196.608"
     inkscape:export-ydpi="196.608"><path
       id="rect101"
       style="display:inline;fill:#f0f0f0;fill-opacity:1;stroke:none;stroke-width:16.0278;stroke-linecap:round;paint-order:stroke fill markers"
       d="M -33.072916,-33.072917 V 227.54167 H 297.65622 l 2e-5,-260.614587 z"
       sodipodi:nodetypes="ccccc" /><rect
       style="display:inline;fill:url(#linearGradient3);fill-opacity:1;stroke-width:0;stroke-linecap:round;stroke-linejoin:round"
       id="rect102"
       width="330.72916"
       height="70.114586"
       x="-33.072914"
       y="227.54166" /></g><g
     inkscape:groupmode="layer"
     id="layer1"
     inkscape:label="車両_元データ"
     style="display:inline"
     transform="translate(0,5.2916667)"><circle
       style="display:inline;fill:url(#linearGradient4);fill-opacity:1;stroke-width:0;stroke-linecap:round;stroke-linejoin:round"
       id="path3"
       cx="209.02083"
       cy="203.72916"
       r="19.84375" /><circle
       style="display:inline;fill:#202020;fill-opacity:1;stroke-width:0;stroke-linecap:round;stroke-linejoin:round"
       id="path2"
       cx="121.70834"
       cy="203.72916"
       r="19.84375" /><path
       id="path1"
       clip-path="none"
       style="display:inline;fill:url(#linearGradient2);fill-opacity:1;stroke:none;stroke-width:0;stroke-linecap:round;stroke-linejoin:round;stroke-opacity:1"
       d="M 157.42708,9.2604167 V 13.229167 H 158.75 v 9.260416 h 2.64583 v -9.260416 h 7.9375 v 9.260416 h 2.64584 v -9.260416 h 1.32291 V 9.2604167 Z M 222.25,55.5625 l -6.61458,15.875 h -18.52084 v -3.96875 h -2.64583 v -6.614583 l -2.64583,-2.645833 h -52.91667 l -2.64583,2.645833 v 6.614583 h -2.64584 V 71.4375 H 99.218751 V 56.885417 H 87.312501 V 71.4375 H 70.114584 L 68.791667,59.53125 H 66.145834 L 64.822917,71.4375 H 51.59375 l -7.9375,3.96875 c 0,0 -11.90625,35.71876 -11.90625,75.40625 0,18.52084 2.645834,29.10417 2.645834,29.10417 H 21.166667 v 3.96875 h -3.96875 l -3.96875,2.64583 3.96875,2.64583 h 3.96875 v 3.96875 H 23.8125 v 3.96875 h -3.96875 v 6.61459 h 13.229167 v -6.61459 h -2.645833 v -3.96875 h 3.96875 v 2.64584 h 6.614583 l -1.322917,15.875 h 9.260417 l 3.96875,-19.84375 h 1.322917 V 206.375 H 67.46875 V 191.82292 H 79.375 l 6.614584,-7.9375 h 1.322917 V 190.5 h 7.9375 v -10.58333 h 56.223959 c -1.82657,0 -3.3073,1.48072 -3.3073,3.30729 0,1.82657 1.48073,3.30729 3.3073,3.30729 h 5.95312 V 190.5 l -13.22916,-3.96875 h -42.33334 l -6.614579,9.26042 -9.260417,5.29166 v 18.52084 h 2.645833 v -6.61459 H 100.54167 V 206.375 l -2.645836,-1.32292 6.614586,-5.29166 v -2.64584 H 127 v 19.84375 h 76.72917 v -19.84375 h 13.22916 V 186.53125 H 186.53125 L 173.30209,190.5 v -3.96875 h 5.95312 c 1.82657,0 3.30729,-1.48072 3.30729,-3.30729 0,-1.82657 -1.48072,-3.30729 -3.30729,-3.30729 H 238.125 v 27.78124 l 2.64583,5.29167 h 1.32292 l -2.64583,-5.29167 1.32291,-2.64583 V 190.5 h 3.96875 v 21.16667 h 35.71876 v -31.75 h 9.26041 v 25.13541 h 7.9375 v -69.14565 c -0.38917,0.22512 -0.84099,0.35399 -1.32291,0.35399 H 256.64583 V 95.250001 h 39.68751 c 0.48192,0 0.93374,0.128864 1.32291,0.353983 V 55.5625 Z m -78.05208,10.583334 h 42.33333 v 1.322916 h -42.33333 z m 68.79166,29.104167 h 39.6875 v 41.010419 h -39.6875 c -1.46126,0 -2.64583,-1.18458 -2.64583,-2.64584 V 97.895834 c 0,-1.46125 1.18457,-2.645833 2.64583,-2.645833 z M 62.177084,97.895834 H 75.40625 V 128.32292 H 62.177084 Z m 66.145836,0 h 11.90625 c 1.46125,0 2.64583,1.184586 2.64583,2.645836 v 31.75 c 0,1.46125 -1.18458,2.64583 -2.64583,2.64583 h -11.90625 c -1.4612,0 -2.64584,-1.18458 -2.64584,-2.64583 v -31.75 c 0,-1.46125 1.18464,-2.645836 2.64584,-2.645836 z m 27.78125,0 h 11.90625 c 1.46126,0 2.64583,1.184576 2.64583,2.645836 v 31.75 c 0,1.46125 -1.18458,2.64583 -2.64583,2.64583 h -11.90625 c -1.46125,0 -2.64584,-1.18458 -2.64584,-2.64583 v -31.75 c 0,-1.46126 1.18458,-2.645836 2.64584,-2.645836 z m 93.92708,82.020836 h 25.13542 v 3.96875 h -25.13542 z m -88.63542,25.13541 h 7.9375 l 1.32292,1.32292 h 7.9375 l 1.32292,7.9375 H 150.8125 l 1.32292,-7.9375 h 7.9375 z"
       sodipodi:nodetypes="cccccccccccccccccccccccccccccccccccscccccccccccccccccccccccccccccccccsscccccccccccccccccccccccssccccccccccccccccsccsccccccccsccsssscccccsssssssssssssssssscccccccccccccc" /><g
       id="g10"
       transform="translate(-1.6919998e-6,5.2916654)"
       style="display:inline;stroke:#808080;stroke-opacity:1"><path
         id="rect11"
         style="fill:none;fill-opacity:0.501961;stroke:#808080;stroke-width:1.98438;stroke-dasharray:none;stroke-opacity:1;paint-order:stroke fill markers"
         d="m 60.854168,87.312501 c -1.461253,0 -2.645833,1.18458 -2.645833,2.645833 v 74.083336 c 0,1.46125 1.184581,2.64583 2.645833,2.64583 h 15.875 c 1.461252,0 2.645834,-1.18458 2.645834,-2.64583 V 89.958334 c 0,-1.461254 -1.18458,-2.645833 -2.645834,-2.645833 z"
         sodipodi:nodetypes="sssssssss" /><path
         id="rect12"
         style="fill:none;fill-opacity:0.501961;stroke:#808080;stroke-width:1.98438;stroke-dasharray:none;stroke-opacity:1;paint-order:stroke fill markers"
         d="m 123.03125,85.989584 c -2.19188,0 -3.96875,1.776867 -3.96875,3.96875 v 72.760416 c 0,2.19188 1.77687,3.96875 3.96875,3.96875 h 50.27084 c 2.19188,0 3.96875,-1.77687 3.96875,-3.96875 V 89.958334 c 0,-2.191879 -1.77687,-3.96875 -3.96875,-3.96875 z"
         sodipodi:nodetypes="sssssssss" /><path
         style="fill:none;fill-opacity:0.501961;stroke:#808080;stroke-width:1.98438;stroke-dasharray:none;stroke-opacity:1;paint-order:stroke fill markers"
         d="M 148.16667,85.989582 V 166.6875"
         id="path13"
         sodipodi:nodetypes="cc" /></g><g
       id="g20"
       style="display:inline;stroke:#202020;stroke-opacity:1"
       transform="translate(0,5.2916664)"><path
         style="display:inline;stroke:#202020;stroke-opacity:1;fill:none;fill-opacity:1;stroke-width:2.64583;stroke-linecap:square;stroke-linejoin:bevel;stroke-dasharray:none;paint-order:stroke fill markers"
         d="M 186.53125,56.885417 129.64583,27.78125 165.36455,6.6145837 201.08333,27.78125 144.19791,56.885417"
         id="path21"
         sodipodi:nodetypes="ccccc" /><path
         style="fill:none;fill-opacity:0.997312;stroke:#202020;stroke-width:2.64583;stroke-linecap:square;stroke-linejoin:bevel;stroke-dasharray:none;stroke-opacity:1;paint-order:stroke fill markers"
         d="m 62.177084,174.625 v 19.84375 H 75.406251 V 174.625"
         id="path22"
         sodipodi:nodetypes="cccc" /></g></g><metadata
     id="metadata824"><rdf:RDF><cc:Work
         rdf:about=""><cc:license
           rdf:resource="http://creativecommons.org/publicdomain/zero/1.0/" /></cc:Work><cc:License
         rdf:about="http://creativecommons.org/publicdomain/zero/1.0/"><cc:permits
           rdf:resource="http://creativecommons.org/ns#Reproduction" /><cc:permits
           rdf:resource="http://creativecommons.org/ns#Distribution" /><cc:permits
           rdf:resource="http://creativecommons.org/ns#DerivativeWorks" /></cc:License></rdf:RDF></metadata></svg>
