<?xml version="1.0" encoding="UTF-8" standalone="no"?>
<!-- Created with Inkscape (http://www.inkscape.org/) -->

<svg
   width="1000"
   height="1000"
   viewBox="0 0 264.58333 264.58334"
   version="1.1"
   id="svg5"
   inkscape:version="1.3 (0e150ed6c4, 2023-07-21)"
   sodipodi:docname="アイコン_背景透過.svg"
   xml:space="preserve"
   inkscape:export-filename="splash_screen_image.webp"
   inkscape:export-xdpi="86.400002"
   inkscape:export-ydpi="86.400002"
   xmlns:inkscape="http://www.inkscape.org/namespaces/inkscape"
   xmlns:sodipodi="http://sodipodi.sourceforge.net/DTD/sodipodi-0.dtd"
   xmlns="http://www.w3.org/2000/svg"
   xmlns:svg="http://www.w3.org/2000/svg"
   xmlns:rdf="http://www.w3.org/1999/02/22-rdf-syntax-ns#"
   xmlns:cc="http://creativecommons.org/ns#"><sodipodi:namedview
     id="namedview7"
     pagecolor="#ffffff"
     bordercolor="#666666"
     borderopacity="1.0"
     inkscape:pageshadow="2"
     inkscape:pageopacity="0.0"
     inkscape:pagecheckerboard="false"
     inkscape:document-units="px"
     showgrid="false"
     units="px"
     inkscape:zoom="0.59326259"
     inkscape:cx="539.39016"
     inkscape:cy="478.70876"
     inkscape:window-width="1920"
     inkscape:window-height="1052"
     inkscape:window-x="1920"
     inkscape:window-y="0"
     inkscape:window-maximized="1"
     inkscape:current-layer="layer4"
     inkscape:showpageshadow="2"
     inkscape:deskcolor="#d1d1d1" /><defs
     id="defs2" /><g
     inkscape:groupmode="layer"
     id="layer3"
     inkscape:label="レイヤー 3"
     style="display:inline"
     transform="translate(0,5.2916667)"><path
       id="path4420"
       style="fill:#dd55ff;fill-opacity:1;stroke:none;stroke-width:3.96875;paint-order:stroke fill markers"
       d="m 156.10417,9.2604167 v 3.9687503 h 1.32291 v 7.9375 h 2.64584 v -7.9375 h 5.29166 v 7.9375 h 2.64584 v -7.9375 h 1.32291 V 9.2604167 Z M 89.958334,50.270834 v 15.875 H 70.114584 L 68.791667,52.916667 H 66.145834 L 64.822917,66.145834 H 55.5625 c -10.2177,0 -23.8125,43.189176 -23.8125,79.374996 0,9.4861 5.767887,25.34625 7.9375,29.10417 H 26.458333 v 3.96875 h -3.96875 l -2.645833,2.64583 2.645833,2.64584 h 3.96875 v 3.96875 H 39.6875 L 38.364584,206.375 h 10.583333 l 6.614583,-31.75 h 50.33853 c 0.34499,-10.09112 2.64861,-19.69149 6.54637,-28.44012 V 89.958851 c 0,-2.906823 2.38587,-5.292701 5.2927,-5.292701 h 47.625 c 2.90684,0 5.29115,2.385881 5.29115,5.292701 v 11.512989 c 3.88192,-0.60839 7.85725,-0.92966 11.90625,-0.92966 7.34115,0 14.43722,1.06028 21.16667,2.99775 V 92.604167 c 0,-1.461242 1.18457,-2.645833 2.64583,-2.645833 h 39.6875 v 42.333336 h -1.40973 c 8.70812,11.98273 14.032,26.56157 14.5712,42.33333 h 38.43228 V 50.270834 H 222.25 l -5.29167,15.875 h -29.10416 v -5.291667 h -50.27084 v 5.291667 h -37.04166 v -15.875 z M 59.53125,85.990101 h 15.875 c 2.176201,0 3.96875,1.792548 3.96875,3.96875 v 74.082299 c 0,2.1762 -1.792549,3.96875 -3.96875,3.96875 h -15.875 c -2.176198,0 -3.96875,-1.79255 -3.96875,-3.96875 V 89.958851 c 0,-2.176201 1.792552,-3.96875 3.96875,-3.96875 z m 58.20885,1.3224 c -1.47692,0 -2.64635,1.169428 -2.64635,2.64635 v 50.818599 c 1.87763,-3.45492 4.02181,-6.74355 6.38876,-9.85417 -1.34986,-0.12017 -2.42001,-1.21921 -2.42001,-2.60036 V 93.927084 c 0,-1.461245 1.18465,-2.645831 2.64583,-2.645833 h 13.22917 c 1.46125,2e-6 2.64583,1.184588 2.64583,2.645833 v 21.253486 c 0.86959,-0.63195 1.74887,-1.25056 2.64532,-1.8464 V 87.312501 Z m 25.1349,0 v 24.326679 c 0.86898,-0.52775 1.75484,-1.03016 2.64583,-1.52394 V 93.927084 c 0,-1.461249 1.18458,-2.645833 2.64584,-2.645833 h 13.22916 c 1.46126,-4e-6 2.64584,1.184584 2.64584,2.645833 v 8.891966 c 1.3096,-0.32634 2.6333,-0.615 3.96823,-0.87282 V 89.958851 c 0,-1.476916 -1.16787,-2.64635 -2.6448,-2.64635 z M 59.53125,88.6349 c -0.746293,0 -1.3224,0.577656 -1.3224,1.323951 v 74.082299 c 0,0.74629 0.576109,1.32395 1.3224,1.32395 h 15.875 c 0.746294,0 1.3224,-0.57766 1.3224,-1.32395 V 89.958851 c 0,-0.746297 -0.576102,-1.323951 -1.3224,-1.323951 z m 190.5,1.323434 h 39.6875 c 1.46126,0 2.64584,1.184581 2.64584,2.645833 v 37.041663 c 0,1.46126 -1.18458,2.64584 -2.64584,2.64584 h -39.6875 z M 60.854167,92.604167 H 74.083334 V 127 H 60.854167 Z m 45.308863,91.605783 c -6.430196,2.90438 -10.913028,9.35926 -10.913029,16.87338 -3e-6,10.2287 8.292119,18.52084 18.520829,18.52084 1.55087,0 3.04894,-0.21142 4.48862,-0.57051 -6.652,-10.2017 -10.9447,-22.06581 -12.09642,-34.82371 z"
       sodipodi:nodetypes="cccccccccccccccccccssccccccccccccccsssscscsscccccccccccccccsssssssssssccssssscccscccssssccsscssssssssscssssccccccccsscc" /><g
       id="g35198"
       style="stroke:#dd55ff;stroke-opacity:1"><path
         style="fill:none;fill-opacity:0.997312;stroke:#dd55ff;stroke-width:2.64583;stroke-linecap:square;stroke-linejoin:bevel;stroke-dasharray:none;stroke-opacity:1;paint-order:stroke fill markers"
         d="m 60.854167,174.625 v 21.16667 H 74.083334 V 174.625"
         id="path18325"
         sodipodi:nodetypes="cccc" /><path
         style="fill:#44ccee;fill-opacity:1;stroke:#dd55ff;stroke-width:2.64583;stroke-dasharray:none;stroke-opacity:1;paint-order:stroke fill markers"
         d="M 60.854166,185.20833 H 74.083332"
         id="path18390"
         sodipodi:nodetypes="cc" /><path
         style="fill:none;fill-opacity:1;stroke:#dd55ff;stroke-width:2.64583;stroke-linecap:square;stroke-linejoin:bevel;stroke-dasharray:none;stroke-opacity:1;paint-order:stroke fill markers"
         d="M 181.23958,63.5 127,33.072898 162.71872,10.583315 198.4375,33.072898 144.19792,63.5"
         id="path20682"
         sodipodi:nodetypes="ccccc" /></g></g><g
     inkscape:groupmode="layer"
     id="layer4"
     inkscape:label="レイヤー 4"
     style="display:inline"><path
       id="path14"
       style="color:#000000;fill:#bb00ff;stroke:none;stroke-linecap:round;stroke-linejoin:round;-inkscape-stroke:none;paint-order:stroke fill markers"
       d="m 178.59375,114.29793 a 37.041668,68.791664 0 0 0 -26.71982,29.89947 h 26.71982 z m 7.9375,0.0377 v 29.86174 h 26.74307 a 37.041668,68.791664 0 0 0 -26.74307,-29.86174 z m -29.38839,4.47414 a 68.791664,68.791664 0 0 0 -31.55001,25.3876 h 17.80667 c 1.66972,-5.04538 3.67243,-9.75265 5.98154,-14.041 2.2417,-4.16315 4.84466,-7.99876 7.7618,-11.3466 z m 50.83928,0 c 2.91715,3.34784 5.52011,7.18345 7.7618,11.3466 2.30911,4.28835 4.31182,8.99562 5.98155,14.041 h 17.80666 a 68.791664,68.791664 0 0 0 -31.55001,-25.3876 z m -86.93113,33.26516 a 68.791664,68.791664 0 0 0 -6.97477,26.51879 h 23.56601 c 0.26454,-9.35218 1.47026,-18.25529 3.48764,-26.45885 h -19.8546 a 3.96875,3.96875 0 0 1 -0.22428,-0.0599 z m 123.02298,0 a 3.96875,3.96875 0 0 1 -0.22427,0.0599 h -19.85461 c 2.01738,8.20356 3.2231,17.10667 3.48765,26.45885 h 23.566 a 68.791664,68.791664 0 0 0 -6.97477,-26.51879 z m -94.6614,0.0599 a 37.041668,68.791664 0 0 0 -3.73879,26.45885 h 32.91995 V 152.1349 Z m 37.11866,0 v 26.45885 h 32.91169 a 37.041668,68.791664 0 0 0 -3.68815,-26.45885 z m -72.45501,34.39635 a 68.791664,68.791664 0 0 0 6.97477,26.5188 3.96875,3.96875 0 0 1 0.22428,-0.0599 h 19.8546 c -2.01738,-8.20356 -3.2231,-17.10667 -3.48764,-26.45885 z m 31.59756,0 a 37.041668,68.791664 0 0 0 3.73879,26.45885 h 29.18116 v -26.45885 z m 40.85745,0 v 26.45885 h 29.22354 a 37.041668,68.791664 0 0 0 3.68815,-26.45885 z m 40.95151,0 c -0.26455,9.35218 -1.47027,18.25529 -3.48765,26.45885 h 19.85461 a 3.96875,3.96875 0 0 1 0.24494,0.0243 68.791664,68.791664 0 0 0 6.9541,-26.48314 z M 125.59285,220.9276 a 68.791664,68.791664 0 0 0 31.55001,25.3876 c -2.91714,-3.34784 -5.5201,-7.18345 -7.7618,-11.3466 -2.30911,-4.28835 -4.31182,-8.99562 -5.98154,-14.041 z m 26.28108,0 a 37.041668,68.791664 0 0 0 26.71982,29.89947 V 220.9276 Z m 34.65732,0 v 29.86174 a 37.041668,68.791664 0 0 0 26.74307,-29.86174 z m 35.19424,0 c -1.66973,5.04538 -3.67244,9.75265 -5.98155,14.041 -2.24169,4.16315 -4.84465,7.99876 -7.7618,11.3466 a 68.791664,68.791664 0 0 0 31.55001,-25.3876 z" /></g><metadata
     id="metadata824"><rdf:RDF><cc:Work
         rdf:about=""><cc:license
           rdf:resource="http://creativecommons.org/publicdomain/zero/1.0/" /></cc:Work><cc:License
         rdf:about="http://creativecommons.org/publicdomain/zero/1.0/"><cc:permits
           rdf:resource="http://creativecommons.org/ns#Reproduction" /><cc:permits
           rdf:resource="http://creativecommons.org/ns#Distribution" /><cc:permits
           rdf:resource="http://creativecommons.org/ns#DerivativeWorks" /></cc:License></rdf:RDF></metadata></svg>
