<?xml version="1.0" encoding="UTF-8" standalone="no"?>
<!-- Created with Inkscape (http://www.inkscape.org/) -->

<svg
   width="1500"
   height="1000"
   viewBox="0 0 396.875 264.58334"
   version="1.1"
   id="svg5"
   inkscape:version="1.3 (0e150ed6c4, 2023-07-21)"
   sodipodi:docname="ロゴマーク.svg"
   xml:space="preserve"
   inkscape:export-filename="ロゴマーク.webp"
   inkscape:export-xdpi="115.2"
   inkscape:export-ydpi="115.2"
   xmlns:inkscape="http://www.inkscape.org/namespaces/inkscape"
   xmlns:sodipodi="http://sodipodi.sourceforge.net/DTD/sodipodi-0.dtd"
   xmlns="http://www.w3.org/2000/svg"
   xmlns:svg="http://www.w3.org/2000/svg"
   xmlns:rdf="http://www.w3.org/1999/02/22-rdf-syntax-ns#"
   xmlns:cc="http://creativecommons.org/ns#"><sodipodi:namedview
     id="namedview7"
     pagecolor="#ffffff"
     bordercolor="#666666"
     borderopacity="1.0"
     inkscape:pageshadow="2"
     inkscape:pageopacity="0.0"
     inkscape:pagecheckerboard="false"
     inkscape:document-units="px"
     showgrid="false"
     units="px"
     inkscape:zoom="0.59326259"
     inkscape:cx="571.41644"
     inkscape:cy="520.84862"
     inkscape:window-width="1920"
     inkscape:window-height="1008"
     inkscape:window-x="0"
     inkscape:window-y="0"
     inkscape:window-maximized="1"
     inkscape:current-layer="layer2"
     inkscape:showpageshadow="2"
     inkscape:deskcolor="#d1d1d1" /><defs
     id="defs2" /><g
     inkscape:groupmode="layer"
     id="layer2"
     inkscape:label="レイヤー 2"
     style="display:inline"
     inkscape:export-filename=".2023年度アイコン_背景.png"
     inkscape:export-xdpi="192"
     inkscape:export-ydpi="192"><path
       id="rect2522"
       style="fill:#f7f7f7;stroke:none;stroke-width:20.0348;stroke-linecap:round;paint-order:stroke fill markers"
       d="M 132.29167,-3e-7 V 264.58334 H 396.87501 V -3e-7 Z"
       inkscape:export-filename="maskable_icon.webp"
       inkscape:export-xdpi="14.7456"
       inkscape:export-ydpi="14.7456" /><path
       id="rect2522-3"
       style="display:inline;fill:#000000;stroke:none;stroke-width:20.0348;stroke-linecap:round;paint-order:stroke fill markers;fill-opacity:1"
       d="M 0,0 V 264.58334 H 132.29167 V 0 Z"
       inkscape:export-filename="maskable_icon.webp"
       inkscape:export-xdpi="14.7456"
       inkscape:export-ydpi="14.7456" /><text
       xml:space="preserve"
       style="font-weight:300;font-size:39.6875px;line-height:1;font-family:'キカカナ23';-inkscape-font-specification:'キカカナ23 Light';stroke-width:0.264583"
       x="13.096875"
       y="45.640625"
       id="text1"><tspan
         sodipodi:role="line"
         id="tspan1"
         style="font-style:normal;font-variant:normal;font-weight:normal;font-stretch:normal;font-size:39.6875px;line-height:1;font-family:'キカカナ23';-inkscape-font-specification:'キカカナ23';fill:#cccccc;fill-opacity:1;stroke-width:0.264583"
         x="13.096875"
         y="45.640625">UNYO</tspan><tspan
         sodipodi:role="line"
         style="font-style:normal;font-variant:normal;font-weight:500;font-stretch:normal;font-size:39.6875px;line-height:1;font-family:'キカカナ23';-inkscape-font-specification:'キカカナ23 Medium';fill:#f7f7f7;fill-opacity:1;stroke-width:0.264583"
         x="13.096875"
         y="85.328125"
         id="tspan2">Hub</tspan></text></g><g
     inkscape:groupmode="layer"
     id="layer3"
     inkscape:label="レイヤー 3"
     style="display:inline"
     transform="translate(0,5.2916667)"><path
       id="path4420"
       style="fill:#404040;fill-opacity:1;stroke:none;stroke-width:3.96875;paint-order:stroke fill markers"
       d="m 288.39584,17.197917 v 3.96875 h 1.32291 v 7.9375 h 2.64584 v -7.9375 h 5.29166 v 7.9375 h 2.64584 v -7.9375 h 1.32291 v -3.96875 z M 222.25,58.208334 v 15.875 h -19.84375 l -1.32291,-13.229167 h -2.64584 l -1.32291,13.229167 h -9.26042 c -10.21772,0 -23.8125,43.189086 -23.8125,79.374986 0,9.48612 5.76788,25.34625 7.9375,29.10417 H 158.75 v 3.96875 h -3.96875 l -2.64583,2.64583 2.64583,2.64584 H 158.75 v 3.96875 h 13.22917 l -1.32292,18.52083 h 10.58334 l 6.61458,-31.75 H 429.94792 V 58.208334 h -75.40625 l -5.29167,15.875 H 320.14584 V 68.791667 H 269.875 v 5.291667 h -37.04166 v -15.875 z m 116.41667,39.6875 h 39.6875 v 42.333326 h -39.6875 c -1.46126,0 -2.64583,-1.18458 -2.64583,-2.64584 v -37.04165 c 0,-1.461249 1.18457,-2.645836 2.64583,-2.645836 z m 43.65625,0 h 39.6875 c 1.46126,0 2.64584,1.184577 2.64584,2.645836 v 37.04165 c 0,1.46126 -1.18458,2.64584 -2.64584,2.64584 h -39.6875 z M 254,99.218751 h 13.22917 c 1.46125,2e-6 2.64583,1.184589 2.64583,2.645829 v 34.39583 c 0,1.46125 -1.18458,2.64583 -2.64583,2.64583 H 254 c -1.4612,0 -2.64583,-1.18458 -2.64583,-2.64583 v -34.39583 c 0,-1.46124 1.18463,-2.645827 2.64583,-2.645829 z m 26.45834,0 h 13.22916 c 1.46126,-4e-6 2.64584,1.184579 2.64584,2.645829 v 34.39583 c 0,1.46125 -1.18459,2.64583 -2.64584,2.64583 h -13.22916 c -1.46125,0 -2.64584,-1.18458 -2.64584,-2.64583 v -34.39583 c 0,-1.46125 1.18458,-2.645829 2.64584,-2.645829 z m -87.3125,1.322919 H 206.375 v 34.39582 h -13.22916 z m 52.91666,89.95832 c -10.22873,0 -18.52083,8.29211 -18.52083,18.52083 0,10.22872 8.2921,18.52084 18.52083,18.52084 10.22873,0 18.52084,-8.29211 18.52084,-18.52084 0,-10.22872 -8.29212,-18.52083 -18.52084,-18.52083 z m 89.95834,0 c -10.22872,0 -18.52084,8.29211 -18.52084,18.52083 0,10.22872 8.29212,18.52084 18.52084,18.52084 10.22872,0 18.52083,-8.29212 18.52083,-18.52084 0,-10.22872 -8.29211,-18.52083 -18.52083,-18.52083 z"
       sodipodi:nodetypes="cccccccccccccccccccsscccccccccccccccccccccccsccsssscssssccsssssssssssssssssscccccssssssssss" /><g
       id="g35203"
       transform="translate(132.29167,7.9374999)"><path
         id="rect17863"
         style="fill:none;fill-opacity:0.501961;stroke:#f7f7f7;stroke-width:2.64583;stroke-dasharray:none;stroke-opacity:1;paint-order:stroke fill markers"
         d="m 59.53125,87.312501 c -1.461253,0 -2.645833,1.18458 -2.645833,2.645833 v 74.083336 c 0,1.46125 1.184581,2.64583 2.645833,2.64583 h 15.875 c 1.461252,0 2.645834,-1.18458 2.645834,-2.64583 V 89.958334 c 0,-1.461254 -1.18458,-2.645833 -2.645834,-2.645833 z"
         sodipodi:nodetypes="sssssssss" /><path
         id="rect18006"
         style="fill:none;fill-opacity:0.501961;stroke:#f7f7f7;stroke-width:2.64583;stroke-dasharray:none;stroke-opacity:1;paint-order:stroke fill markers"
         d="m 117.73958,85.989584 c -2.19188,0 -3.96875,1.776867 -3.96875,3.96875 v 72.760416 c 0,2.19188 1.77687,3.96875 3.96875,3.96875 h 47.625 c 2.19188,0 3.96875,-1.77687 3.96875,-3.96875 V 89.958334 c 0,-2.191879 -1.77687,-3.96875 -3.96875,-3.96875 z"
         sodipodi:nodetypes="sssssssss" /><path
         style="fill:none;fill-opacity:0.501961;stroke:#f7f7f7;stroke-width:2.64583;stroke-dasharray:none;stroke-opacity:1;paint-order:stroke fill markers"
         d="M 141.55208,85.989582 V 166.6875"
         id="path18260"
         sodipodi:nodetypes="cc" /></g><g
       id="g35198"
       style="stroke:#404040;stroke-opacity:1"
       transform="translate(132.29167,7.9374999)"><path
         style="fill:none;fill-opacity:0.997312;stroke:#404040;stroke-width:2.64583;stroke-linecap:square;stroke-linejoin:bevel;stroke-dasharray:none;stroke-opacity:1;paint-order:stroke fill markers"
         d="m 60.854167,174.625 v 21.16667 H 74.083334 V 174.625"
         id="path18325"
         sodipodi:nodetypes="cccc" /><path
         style="fill:#44ccee;fill-opacity:1;stroke:#404040;stroke-width:2.64583;stroke-dasharray:none;stroke-opacity:1;paint-order:stroke fill markers"
         d="M 60.854166,185.20833 H 74.083332"
         id="path18390"
         sodipodi:nodetypes="cc" /><path
         style="fill:none;fill-opacity:1;stroke:#404040;stroke-width:2.64583;stroke-linecap:square;stroke-linejoin:bevel;stroke-dasharray:none;stroke-opacity:1;paint-order:stroke fill markers"
         d="M 181.23958,63.5 127,33.072898 162.71872,10.583315 198.4375,33.072898 144.19792,63.5"
         id="path20682"
         sodipodi:nodetypes="ccccc" /></g></g><g
     inkscape:groupmode="layer"
     id="layer4"
     inkscape:label="レイヤー 4"
     style="display:inline"><circle
       style="fill:#000000;fill-opacity:1;stroke:#f7f7f7;stroke-width:15.875;stroke-linecap:round;stroke-linejoin:round;stroke-dasharray:none;stroke-opacity:1;paint-order:stroke fill markers"
       id="path1"
       cx="314.85416"
       cy="190.49998"
       r="68.791664" /><ellipse
       style="display:inline;fill:#000000;fill-opacity:1;stroke:#f7f7f7;stroke-width:15.875;stroke-linecap:round;stroke-linejoin:round;stroke-dasharray:none;stroke-opacity:1;paint-order:stroke fill markers"
       id="path1-5"
       cx="314.85416"
       cy="190.49998"
       rx="37.041668"
       ry="68.791664" /><path
       style="fill:#000000;fill-opacity:1;stroke:#f7f7f7;stroke-width:7.9375;stroke-linecap:round;stroke-linejoin:round;stroke-dasharray:none;stroke-opacity:1;paint-order:stroke fill markers"
       d="M 314.85418,121.70832 V 259.29166"
       id="path2"
       sodipodi:nodetypes="cc" /><path
       style="display:inline;fill:#000000;fill-opacity:1;stroke:#f7f7f7;stroke-width:7.9375;stroke-linecap:round;stroke-linejoin:round;stroke-dasharray:none;stroke-opacity:1;paint-order:stroke fill markers"
       d="M 246.06251,190.49999 H 383.64585"
       id="path2-3"
       sodipodi:nodetypes="cc" /><path
       style="display:inline;fill:#000000;fill-opacity:1;stroke:#f7f7f7;stroke-width:7.9375;stroke-linecap:round;stroke-linejoin:round;stroke-dasharray:none;stroke-opacity:1;paint-order:stroke fill markers"
       d="M 253.56705,156.10416 H 376.14129"
       id="path2-3-6"
       sodipodi:nodetypes="cc" /><path
       style="display:inline;fill:#000000;fill-opacity:1;stroke:#f7f7f7;stroke-width:7.9375;stroke-linecap:round;stroke-linejoin:round;stroke-dasharray:none;stroke-opacity:1;paint-order:stroke fill markers"
       d="M 253.56705,224.89582 H 376.14129"
       id="path2-3-7"
       sodipodi:nodetypes="cc" /></g><metadata
     id="metadata824"><rdf:RDF><cc:Work
         rdf:about=""><cc:license
           rdf:resource="http://creativecommons.org/publicdomain/zero/1.0/" /></cc:Work><cc:License
         rdf:about="http://creativecommons.org/publicdomain/zero/1.0/"><cc:permits
           rdf:resource="http://creativecommons.org/ns#Reproduction" /><cc:permits
           rdf:resource="http://creativecommons.org/ns#Distribution" /><cc:permits
           rdf:resource="http://creativecommons.org/ns#DerivativeWorks" /></cc:License></rdf:RDF></metadata></svg>
