<?xml version="1.0" encoding="UTF-8" standalone="no"?>
<!-- Created with Inkscape (http://www.inkscape.org/) -->

<svg
   width="1500"
   height="1000"
   viewBox="0 0 396.875 264.58334"
   version="1.1"
   id="svg5"
   inkscape:version="1.4 (e7c3feb100, 2024-10-09)"
   sodipodi:docname="ロゴマーク.svg"
   xml:space="preserve"
   inkscape:export-filename="ロゴマーク.webp"
   inkscape:export-xdpi="196.608"
   inkscape:export-ydpi="196.608"
   xmlns:inkscape="http://www.inkscape.org/namespaces/inkscape"
   xmlns:sodipodi="http://sodipodi.sourceforge.net/DTD/sodipodi-0.dtd"
   xmlns="http://www.w3.org/2000/svg"
   xmlns:svg="http://www.w3.org/2000/svg"
   xmlns:rdf="http://www.w3.org/1999/02/22-rdf-syntax-ns#"
   xmlns:cc="http://creativecommons.org/ns#"><sodipodi:namedview
     id="namedview7"
     pagecolor="#ffffff"
     bordercolor="#666666"
     borderopacity="1.0"
     inkscape:pageshadow="2"
     inkscape:pageopacity="0.0"
     inkscape:pagecheckerboard="false"
     inkscape:document-units="px"
     showgrid="false"
     units="px"
     inkscape:zoom="0.41949999"
     inkscape:cx="939.21336"
     inkscape:cy="415.9714"
     inkscape:window-width="1920"
     inkscape:window-height="1052"
     inkscape:window-x="1920"
     inkscape:window-y="0"
     inkscape:window-maximized="1"
     inkscape:current-layer="g300"
     inkscape:showpageshadow="2"
     inkscape:deskcolor="#d1d1d1"
     showguides="true"
     inkscape:lockguides="true"><sodipodi:guide
       position="0,84.666667"
       orientation="0,1"
       id="guide5"
       inkscape:locked="true"
       inkscape:label=""
       inkscape:color="rgb(0,134,229)" /><sodipodi:guide
       position="0,142.875"
       orientation="0,1"
       id="guide1"
       inkscape:locked="true"
       inkscape:label=""
       inkscape:color="rgb(0,134,229)" /></sodipodi:namedview><defs
     id="defs2" /><g
     inkscape:groupmode="layer"
     id="g100"
     inkscape:label="背景"
     style="display:inline"
     inkscape:export-xdpi="196.608"
     inkscape:export-ydpi="196.608"><rect
       style="display:inline;fill:#202020;fill-opacity:1;stroke-width:0;stroke-linecap:round;stroke-linejoin:round"
       id="rect102"
       width="297.65625"
       height="37.041676"
       x="99.21875"
       y="227.54166" /><path
       id="rect101"
       style="display:inline;fill:#eeeeee;fill-opacity:1;stroke:none;stroke-width:16.0278;stroke-linecap:round;paint-order:stroke fill markers"
       d="M 99.218751,-4.2384465e-7 V 227.54167 H 396.87499 L 396.875,-4.2384462e-7 Z"
       sodipodi:nodetypes="ccccc" /></g><g
     inkscape:groupmode="layer"
     id="layer1"
     inkscape:label="車両_元データ"
     style="display:inline"
     transform="translate(0,5.2916667)"><circle
       style="display:inline;fill:#202020;fill-opacity:1;stroke-width:0;stroke-linecap:round;stroke-linejoin:round"
       id="path3"
       cx="341.3125"
       cy="203.72916"
       r="19.84375" /><circle
       style="display:inline;fill:#202020;fill-opacity:1;stroke-width:0;stroke-linecap:round;stroke-linejoin:round"
       id="path2"
       cx="251.35414"
       cy="203.72916"
       r="19.84375" /><path
       id="path1"
       style="display:inline;fill:#202020;fill-opacity:1;stroke:none;stroke-width:0;stroke-linecap:round;stroke-linejoin:round;stroke-opacity:1"
       d="m 288.39584,9.2604166 v 3.9687504 h 1.32292 v 9.260417 h 2.64583 v -9.260417 h 7.9375 v 9.260417 h 2.64583 v -9.260417 h 1.32292 V 9.2604166 Z M 218.28125,55.562501 v 15.875 H 199.76042 L 198.4375,58.208334 h -2.64583 l -1.32292,13.229167 h -9.26042 l -7.9375,3.96875 c 0,0 -13.22916,35.718759 -13.22916,75.406249 0,18.52084 2.64583,29.10417 2.64583,29.10417 h -13.22917 v 3.96875 h -3.96875 l -3.96875,2.64583 3.96875,2.64584 h 3.96875 v 3.96875 h 2.64584 v 3.96875 h -2.64584 v 6.61458 h 15.875 v -6.61458 h -7.9375 v -3.96875 h 5.29167 v 2.64583 h 5.29167 l -1.32292,15.875 h 10.58333 l 6.61459,-31.75 h 95.91146 c -1.82657,0 -3.30729,1.48072 -3.30729,3.30729 0,1.82657 1.48072,3.30729 3.30729,3.30729 h 5.95312 V 190.5 l -13.22916,-3.96875 h -44.97917 l -6.61459,9.26042 -9.26041,5.29166 0,18.52084 h 2.64583 l 0,-14.55209 h 9.26042 l 6.61458,-5.29166 v -2.64583 h 39.6875 l 3.96875,2.64583 h -19.84375 v 1.32292 h 15.875 v 5.29166 h -15.875 v 1.32292 h 22.48959 V 206.375 h 10.58333 l 1.32292,-1.32291 h 7.9375 l 1.32291,1.32291 h 10.58334 v 1.32292 h 22.48958 V 206.375 h -15.875 v -5.29166 h 15.875 v -1.32292 h -19.84375 l 3.96875,-2.64583 h 29.10417 v -10.58334 h -31.75 L 302.94792,190.5 v -3.96875 h 5.95313 c 1.82657,0 3.30729,-1.48072 3.30729,-3.30729 0,-1.82657 -1.48072,-3.30729 -3.30729,-3.30729 h 66.80729 v 31.75 h 35.71875 v -31.75 h 9.26042 V 206.375 h 9.26041 V 179.91667 55.562501 h -75.40625 l -7.9375,15.875 H 326.76042 V 60.854167 h -60.85417 v 10.583334 h -34.39583 v -15.875 z m 124.35417,39.687496 h 39.6875 v 42.333343 h -39.6875 c -1.46126,0 -2.64583,-1.18458 -2.64583,-2.64584 V 97.895837 c 0,-1.46125 1.18457,-2.64584 2.64583,-2.64584 z m 43.65625,0 h 39.6875 c 1.46126,0 2.64584,1.18458 2.64584,2.64584 V 134.9375 c 0,1.46126 -1.18458,2.64584 -2.64584,2.64584 h -39.6875 z m -129.64584,1.32292 H 269.875 c 1.46125,0 2.64583,1.18459 2.64583,2.64583 v 34.395843 c 0,1.46125 -1.18458,2.64583 -2.64583,2.64583 h -13.22917 c -1.4612,0 -2.64583,-1.18458 -2.64583,-2.64583 V 99.218747 c 0,-1.46124 1.18463,-2.64583 2.64583,-2.64583 z m 26.45834,0 h 13.22916 c 1.46126,0 2.64584,1.18458 2.64584,2.64583 v 34.395843 c 0,1.46125 -1.18459,2.64583 -2.64584,2.64583 h -13.22916 c -1.46125,0 -2.64584,-1.18458 -2.64584,-2.64583 V 99.218747 c 0,-1.46125 1.18458,-2.64583 2.64584,-2.64583 z m -89.95834,1.32292 H 206.375 v 31.750003 h -13.22917 z m 187.85418,82.020833 h 25.13542 v 3.96875 h -25.13542 z"
       clip-path="none"
       sodipodi:nodetypes="cccccccccccccccccccccscccccccccccccccccccccccsscccccccccccccccccccccccccccccccccccccccccsscccccccccccccccccccsccsssscssssccsssssssssssssssssscccccccccc" /><g
       id="g10"
       transform="translate(132.29167,5.2916653)"
       style="display:inline;stroke:#cccccc;stroke-opacity:1"><path
         id="rect11"
         style="fill:none;fill-opacity:0.501961;stroke:#cccccc;stroke-width:1.98438;stroke-dasharray:none;stroke-opacity:1;paint-order:stroke fill markers"
         d="m 59.53125,87.312501 c -1.461253,0 -2.645833,1.18458 -2.645833,2.645833 v 74.083336 c 0,1.46125 1.184581,2.64583 2.645833,2.64583 h 15.875 c 1.461252,0 2.645834,-1.18458 2.645834,-2.64583 V 89.958334 c 0,-1.461254 -1.18458,-2.645833 -2.645834,-2.645833 z"
         sodipodi:nodetypes="sssssssss" /><path
         id="rect12"
         style="fill:none;fill-opacity:0.501961;stroke:#cccccc;stroke-width:1.98438;stroke-dasharray:none;stroke-opacity:1;paint-order:stroke fill markers"
         d="m 120.38542,85.989584 c -2.19188,0 -3.96875,1.776867 -3.96875,3.96875 v 72.760416 c 0,2.19188 1.77687,3.96875 3.96875,3.96875 h 47.625 c 2.19188,0 3.96875,-1.77687 3.96875,-3.96875 V 89.958334 c 0,-2.191879 -1.77687,-3.96875 -3.96875,-3.96875 z"
         sodipodi:nodetypes="sssssssss" /><path
         style="fill:none;fill-opacity:0.501961;stroke:#cccccc;stroke-width:1.98438;stroke-dasharray:none;stroke-opacity:1;paint-order:stroke fill markers"
         d="M 144.19792,85.989582 V 166.6875"
         id="path13"
         sodipodi:nodetypes="cc" /></g><g
       id="g20"
       style="display:inline;stroke:#202020;stroke-opacity:1"
       transform="translate(132.29167,5.2916663)"><path
         style="fill:none;fill-opacity:0.997312;stroke:#202020;stroke-width:2.64583;stroke-linecap:square;stroke-linejoin:bevel;stroke-dasharray:none;stroke-opacity:1;paint-order:stroke fill markers"
         d="m 60.854167,174.625 v 19.84375 H 74.083334 V 174.625"
         id="path21"
         sodipodi:nodetypes="cccc" /><path
         style="fill:#44ccee;fill-opacity:1;stroke:#202020;stroke-width:2.64583;stroke-dasharray:none;stroke-opacity:1;paint-order:stroke fill markers"
         d="M 60.854166,183.88542 H 74.083332"
         id="path22"
         sodipodi:nodetypes="cc" /><path
         style="fill:none;fill-opacity:1;stroke:#202020;stroke-width:2.64583;stroke-linecap:square;stroke-linejoin:bevel;stroke-dasharray:none;stroke-opacity:1;paint-order:stroke fill markers"
         d="M 185.20835,58.208334 128.32293,27.78125 164.04165,5.2916675 199.76043,27.78125 142.87501,58.208334"
         id="path23"
         sodipodi:nodetypes="ccccc" /></g></g><g
     inkscape:groupmode="layer"
     id="layer5"
     inkscape:label="ロゴ"
     style="display:inline"
     inkscape:export-xdpi="196.608"
     inkscape:export-ydpi="196.608"
     transform="translate(2.6458336,16.404167)"><path
       id="rect502"
       style="display:inline;fill:#222222;fill-opacity:1;stroke:none;stroke-width:20.0348;stroke-linecap:round;paint-order:stroke fill markers"
       d="M -2.6458336,-16.40417 V 248.17917 H 129.64584 V -16.40417 Z"
       inkscape:export-filename="maskable_icon.webp"
       inkscape:export-xdpi="14.7456"
       inkscape:export-ydpi="14.7456" /><text
       xml:space="preserve"
       style="font-weight:300;font-size:39.6875px;line-height:1;font-family:'キカカナ23';-inkscape-font-specification:'キカカナ23 Light';display:inline;stroke-width:0.264583"
       x="10.451041"
       y="29.236456"
       id="text501"><tspan
         sodipodi:role="line"
         id="tspan1"
         style="font-style:normal;font-variant:normal;font-weight:normal;font-stretch:normal;font-size:39.6875px;line-height:1;font-family:'キカカナ23';-inkscape-font-specification:'キカカナ23';fill:#cccccc;fill-opacity:1;stroke-width:0.264583"
         x="10.451041"
         y="29.236456">UNYO</tspan><tspan
         sodipodi:role="line"
         style="font-style:normal;font-variant:normal;font-weight:500;font-stretch:normal;font-size:39.6875px;line-height:1;font-family:'キカカナ23';-inkscape-font-specification:'キカカナ23 Medium';fill:#f7f7f7;fill-opacity:1;stroke-width:0.264583"
         x="10.451041"
         y="68.923958"
         id="tspan2">Hub</tspan></text></g><metadata
     id="metadata824"><rdf:RDF><cc:Work
         rdf:about=""><cc:license
           rdf:resource="http://creativecommons.org/publicdomain/zero/1.0/" /></cc:Work><cc:License
         rdf:about="http://creativecommons.org/publicdomain/zero/1.0/"><cc:permits
           rdf:resource="http://creativecommons.org/ns#Reproduction" /><cc:permits
           rdf:resource="http://creativecommons.org/ns#Distribution" /><cc:permits
           rdf:resource="http://creativecommons.org/ns#DerivativeWorks" /></cc:License></rdf:RDF></metadata></svg>
