<?xml version="1.0" encoding="UTF-8" standalone="no"?>
<!-- Created with Inkscape (http://www.inkscape.org/) -->

<svg
   width="1500"
   height="1000"
   viewBox="0 0 396.875 264.58334"
   version="1.1"
   id="svg5"
   inkscape:version="1.4 (e7c3feb100, 2024-10-09)"
   sodipodi:docname="ロゴマーク.svg"
   xml:space="preserve"
   inkscape:export-filename="ロゴマーク.webp"
   inkscape:export-xdpi="115.2"
   inkscape:export-ydpi="115.2"
   xmlns:inkscape="http://www.inkscape.org/namespaces/inkscape"
   xmlns:sodipodi="http://sodipodi.sourceforge.net/DTD/sodipodi-0.dtd"
   xmlns="http://www.w3.org/2000/svg"
   xmlns:svg="http://www.w3.org/2000/svg"
   xmlns:rdf="http://www.w3.org/1999/02/22-rdf-syntax-ns#"
   xmlns:cc="http://creativecommons.org/ns#"><sodipodi:namedview
     id="namedview7"
     pagecolor="#ffffff"
     bordercolor="#666666"
     borderopacity="1.0"
     inkscape:pageshadow="2"
     inkscape:pageopacity="0.0"
     inkscape:pagecheckerboard="false"
     inkscape:document-units="px"
     showgrid="false"
     units="px"
     inkscape:zoom="0.59326259"
     inkscape:cx="562.14568"
     inkscape:cy="486.29394"
     inkscape:window-width="1920"
     inkscape:window-height="1008"
     inkscape:window-x="0"
     inkscape:window-y="0"
     inkscape:window-maximized="1"
     inkscape:current-layer="layer1"
     inkscape:showpageshadow="2"
     inkscape:deskcolor="#d1d1d1" /><defs
     id="defs2" /><g
     inkscape:groupmode="layer"
     id="layer2"
     inkscape:label="レイヤー 2"
     style="display:inline"
     inkscape:export-xdpi="192"
     inkscape:export-ydpi="192"><path
       id="rect2522"
       style="fill:#f7f7f7;stroke:none;stroke-width:20.0348;stroke-linecap:round;paint-order:stroke fill markers"
       d="M 132.29167,-3e-7 V 264.58334 H 396.87501 V -3e-7 Z"
       inkscape:export-filename="maskable_icon.webp"
       inkscape:export-xdpi="14.7456"
       inkscape:export-ydpi="14.7456" /><path
       id="rect2522-3"
       style="display:inline;fill:#222222;stroke:none;stroke-width:20.0348;stroke-linecap:round;paint-order:stroke fill markers;fill-opacity:1"
       d="M 0,0 V 264.58334 H 132.29167 V 0 Z"
       inkscape:export-filename="maskable_icon.webp"
       inkscape:export-xdpi="14.7456"
       inkscape:export-ydpi="14.7456" /><text
       xml:space="preserve"
       style="font-weight:300;font-size:39.6875px;line-height:1;font-family:'キカカナ23';-inkscape-font-specification:'キカカナ23 Light';stroke-width:0.264583"
       x="13.096875"
       y="45.640625"
       id="text1"><tspan
         sodipodi:role="line"
         id="tspan1"
         style="font-style:normal;font-variant:normal;font-weight:normal;font-stretch:normal;font-size:39.6875px;line-height:1;font-family:'キカカナ23';-inkscape-font-specification:'キカカナ23';fill:#cccccc;fill-opacity:1;stroke-width:0.264583"
         x="13.096875"
         y="45.640625">UNYO</tspan><tspan
         sodipodi:role="line"
         style="font-style:normal;font-variant:normal;font-weight:500;font-stretch:normal;font-size:39.6875px;line-height:1;font-family:'キカカナ23';-inkscape-font-specification:'キカカナ23 Medium';fill:#f7f7f7;fill-opacity:1;stroke-width:0.264583"
         x="13.096875"
         y="85.328125"
         id="tspan2">Hub</tspan></text></g><g
     inkscape:groupmode="layer"
     id="layer1"
     inkscape:label="車両_元データ"
     style="display:inline"
     transform="translate(132.29167,5.2916667)"><path
       id="rect2"
       style="display:inline;fill:#202020;fill-opacity:1;stroke:none;stroke-width:0;stroke-linecap:round;stroke-linejoin:round;stroke-opacity:1"
       d="m 119.06251,190.5 c -10.22873,0 -18.52084,8.29211 -18.52084,18.52083 -1e-5,10.22872 8.29211,18.52083 18.52084,18.52083 10.22873,0 18.52083,-8.2921 18.52083,-18.52083 0,-10.22872 -8.29211,-18.52083 -18.52083,-18.52083 z m 89.95833,0 c -10.22872,0 -18.52083,8.29211 -18.52083,18.52083 0,10.22872 8.29211,18.52083 18.52083,18.52083 10.22872,0 18.52084,-8.29211 18.52084,-18.52083 0,-10.22872 -8.29212,-18.52083 -18.52084,-18.52083 z" /><path
       id="path1"
       style="display:inline;fill:#202020;fill-opacity:1;stroke:none;stroke-width:0;stroke-linecap:round;stroke-linejoin:round;stroke-opacity:1"
       d="m 156.10417,19.84375 v 3.96875 h 1.32292 v 9.260417 h 2.64583 V 23.8125 h 7.9375 v 9.260417 h 2.64583 V 23.8125 h 1.32292 V 19.84375 Z M 85.989583,66.145834 v 15.875 H 67.468751 L 66.145834,68.791667 h -2.645833 l -1.322917,13.229167 h -9.260417 l -7.9375,3.96875 c 0,0 -13.229167,35.718756 -13.229167,75.406246 0,18.52084 2.645834,29.10417 2.645834,29.10417 H 21.166667 v 3.96875 h -3.96875 l -3.96875,2.64583 3.96875,2.64584 h 3.96875 v 3.96875 H 23.8125 v 3.96875 h -2.645833 v 6.61458 h 15.875 v -6.61458 h -7.9375 v -3.96875 h 5.291667 V 206.375 H 39.6875 L 38.364584,222.25 H 48.947917 L 55.5625,190.5 h 95.91146 c -1.82657,0 -3.30729,1.48072 -3.30729,3.30729 0,1.82657 1.48072,3.30729 3.30729,3.30729 h 5.95312 v 3.96875 l -13.22916,-3.96875 H 99.218751 l -6.614585,9.26042 -9.260413,5.29166 -2e-6,18.52084 h 2.645834 l 2e-6,-14.55209 H 95.25 l 6.61458,-5.29166 v -2.64583 h 39.6875 l 3.96875,2.64583 h -19.84375 v 1.32292 h 15.875 v 5.29166 h -15.875 v 1.32292 h 22.48959 v -1.32292 H 158.75 l 1.32292,-1.32291 h 7.9375 l 1.32291,1.32291 h 10.58334 v 1.32292 h 22.48958 v -1.32292 h -15.875 v -5.29166 h 15.875 v -1.32292 H 182.5625 l 3.96875,-2.64583 h 29.10417 v -10.58334 h -31.75 l -13.22917,3.96875 v -3.96875 h 5.95313 c 1.82657,0 3.30729,-1.48072 3.30729,-3.30729 0,-1.82657 -1.48072,-3.30729 -3.30729,-3.30729 h 66.80729 v 31.75 h 35.71875 V 190.5 h 9.26042 v 26.45833 h 9.26041 V 190.5 66.145834 H 222.25 l -7.9375,15.875 H 194.46875 V 71.4375 H 133.61458 V 82.020834 H 99.218752 v -15.875 z M 210.34375,105.83333 h 39.6875 v 42.33334 h -39.6875 c -1.46126,0 -2.64583,-1.18458 -2.64583,-2.64584 v -37.04166 c 0,-1.46125 1.18457,-2.64584 2.64583,-2.64584 z m 43.65625,0 h 39.6875 c 1.46126,0 2.64584,1.18458 2.64584,2.64584 v 37.04166 c 0,1.46126 -1.18458,2.64584 -2.64584,2.64584 H 254 Z m -129.64584,1.32292 h 13.22917 c 1.46125,0 2.64583,1.18459 2.64583,2.64583 v 34.39584 c 0,1.46125 -1.18458,2.64583 -2.64583,2.64583 h -13.22917 c -1.4612,0 -2.64583,-1.18458 -2.64583,-2.64583 v -34.39584 c 0,-1.46124 1.18463,-2.64583 2.64583,-2.64583 z m 26.45834,0 h 13.22916 c 1.46126,0 2.64584,1.18458 2.64584,2.64583 v 34.39584 c 0,1.46125 -1.18459,2.64583 -2.64584,2.64583 H 150.8125 c -1.46125,0 -2.64584,-1.18458 -2.64584,-2.64583 v -34.39584 c 0,-1.46125 1.18458,-2.64583 2.64584,-2.64583 z m -89.958333,1.32292 h 13.229167 v 31.75 H 60.854167 Z M 248.70834,190.5 h 25.13542 v 3.96875 h -25.13542 z"
       transform="translate(0,-5.2916667)"
       clip-path="none"
       sodipodi:nodetypes="cccccccccccccccccccccscccccccccccccccccccccccsscccccccccccccccccccccccccccccccccccccccccsscccccccccccccccccccsccsssscssssccsssssssssssssssssscccccccccc" /><g
       id="g10"
       transform="translate(-1.6919998e-6,10.583332)"
       style="display:inline;stroke:#cccccc;stroke-opacity:1"><path
         id="rect11"
         style="fill:none;fill-opacity:0.501961;stroke:#cccccc;stroke-width:2.64583;stroke-dasharray:none;stroke-opacity:1;paint-order:stroke fill markers"
         d="m 59.53125,87.312501 c -1.461253,0 -2.645833,1.18458 -2.645833,2.645833 v 74.083336 c 0,1.46125 1.184581,2.64583 2.645833,2.64583 h 15.875 c 1.461252,0 2.645834,-1.18458 2.645834,-2.64583 V 89.958334 c 0,-1.461254 -1.18458,-2.645833 -2.645834,-2.645833 z"
         sodipodi:nodetypes="sssssssss" /><path
         id="rect12"
         style="fill:none;fill-opacity:0.501961;stroke:#cccccc;stroke-width:2.64583;stroke-dasharray:none;stroke-opacity:1;paint-order:stroke fill markers"
         d="m 120.38542,85.989584 c -2.19188,0 -3.96875,1.776867 -3.96875,3.96875 v 72.760416 c 0,2.19188 1.77687,3.96875 3.96875,3.96875 h 47.625 c 2.19188,0 3.96875,-1.77687 3.96875,-3.96875 V 89.958334 c 0,-2.191879 -1.77687,-3.96875 -3.96875,-3.96875 z"
         sodipodi:nodetypes="sssssssss" /><path
         style="fill:none;fill-opacity:0.501961;stroke:#cccccc;stroke-width:2.64583;stroke-dasharray:none;stroke-opacity:1;paint-order:stroke fill markers"
         d="M 144.19792,85.989582 V 166.6875"
         id="path13"
         sodipodi:nodetypes="cc" /></g><g
       id="g20"
       style="display:inline;stroke:#202020;stroke-opacity:1"
       transform="translate(0,10.583333)"><path
         style="fill:none;fill-opacity:0.997312;stroke:#202020;stroke-width:2.64583;stroke-linecap:square;stroke-linejoin:bevel;stroke-dasharray:none;stroke-opacity:1;paint-order:stroke fill markers"
         d="m 60.854167,174.625 v 19.84375 H 74.083334 V 174.625"
         id="path21"
         sodipodi:nodetypes="cccc" /><path
         style="fill:#44ccee;fill-opacity:1;stroke:#202020;stroke-width:2.64583;stroke-dasharray:none;stroke-opacity:1;paint-order:stroke fill markers"
         d="M 60.854166,183.88542 H 74.083332"
         id="path22"
         sodipodi:nodetypes="cc" /><path
         style="fill:none;fill-opacity:1;stroke:#202020;stroke-width:2.64583;stroke-linecap:square;stroke-linejoin:bevel;stroke-dasharray:none;stroke-opacity:1;paint-order:stroke fill markers"
         d="M 185.20835,58.208334 128.32293,27.78125 164.04165,5.2916675 199.76043,27.78125 142.87501,58.208334"
         id="path23"
         sodipodi:nodetypes="ccccc" /></g></g><metadata
     id="metadata824"><rdf:RDF><cc:Work
         rdf:about=""><cc:license
           rdf:resource="http://creativecommons.org/publicdomain/zero/1.0/" /></cc:Work><cc:License
         rdf:about="http://creativecommons.org/publicdomain/zero/1.0/"><cc:permits
           rdf:resource="http://creativecommons.org/ns#Reproduction" /><cc:permits
           rdf:resource="http://creativecommons.org/ns#Distribution" /><cc:permits
           rdf:resource="http://creativecommons.org/ns#DerivativeWorks" /></cc:License></rdf:RDF></metadata></svg>
