<?xml version="1.0" encoding="UTF-8" standalone="no"?>
<!-- Created with Inkscape (http://www.inkscape.org/) -->

<svg
   width="600"
   height="900"
   viewBox="0 0 158.75 238.125"
   version="1.1"
   id="svg5"
   inkscape:version="1.3 (0e150ed6c4, 2023-07-21)"
   sodipodi:docname="列車アイコン.svg"
   inkscape:export-filename="不明な列車.webp"
   inkscape:export-xdpi="12.8"
   inkscape:export-ydpi="12.8"
   xmlns:inkscape="http://www.inkscape.org/namespaces/inkscape"
   xmlns:sodipodi="http://sodipodi.sourceforge.net/DTD/sodipodi-0.dtd"
   xmlns="http://www.w3.org/2000/svg"
   xmlns:svg="http://www.w3.org/2000/svg"
   xmlns:rdf="http://www.w3.org/1999/02/22-rdf-syntax-ns#"
   xmlns:cc="http://creativecommons.org/ns#">
  <sodipodi:namedview
     id="namedview7"
     pagecolor="#ffffff"
     bordercolor="#666666"
     borderopacity="1.0"
     inkscape:pageshadow="2"
     inkscape:pageopacity="0.0"
     inkscape:pagecheckerboard="false"
     inkscape:document-units="px"
     showgrid="false"
     units="px"
     inkscape:zoom="0.51528125"
     inkscape:cx="178.54327"
     inkscape:cy="215.41634"
     inkscape:window-width="1920"
     inkscape:window-height="1052"
     inkscape:window-x="1920"
     inkscape:window-y="0"
     inkscape:window-maximized="1"
     inkscape:current-layer="layer1"
     inkscape:showpageshadow="2"
     inkscape:deskcolor="#d1d1d1"
     showguides="true"
     inkscape:lockguides="true">
    <sodipodi:guide
       position="0,68.791667"
       orientation="0,1"
       id="guide1"
       inkscape:locked="true"
       inkscape:label=""
       inkscape:color="rgb(0,134,229)" />
    <sodipodi:guide
       position="0,195.79167"
       orientation="0,1"
       id="guide2"
       inkscape:locked="true"
       inkscape:label=""
       inkscape:color="rgb(0,134,229)" />
    <sodipodi:guide
       position="31.75,211.66667"
       orientation="-1,0"
       id="guide3"
       inkscape:locked="true"
       inkscape:label=""
       inkscape:color="rgb(0,134,229)" />
    <sodipodi:guide
       position="127,211.66667"
       orientation="-1,0"
       id="guide4"
       inkscape:locked="true"
       inkscape:label=""
       inkscape:color="rgb(0,134,229)" />
    <sodipodi:guide
       position="66.145833,238.125"
       orientation="-1,0"
       id="guide6"
       inkscape:locked="true"
       inkscape:label=""
       inkscape:color="rgb(0,134,229)" />
    <sodipodi:guide
       position="92.604167,238.125"
       orientation="-1,0"
       id="guide7"
       inkscape:locked="true"
       inkscape:label=""
       inkscape:color="rgb(0,134,229)" />
  </sodipodi:namedview>
  <defs
     id="defs2" />
  <g
     inkscape:label="レイヤー 1"
     inkscape:groupmode="layer"
     id="layer1">
    <path
       id="rect1"
       style="fill:#808080;fill-opacity:1;stroke:none;stroke-width:0;stroke-linecap:round;stroke-linejoin:round;stroke-dasharray:none;paint-order:stroke fill markers"
       d="M 47.625 5.2911499 A 2.6460995 2.6460995 0 0 0 45.558459 6.2854045 L 34.976676 19.513538 A 2.6458349 2.6458349 0 0 0 35.388538 23.232174 A 2.6458349 2.6458349 0 0 0 39.107174 22.820312 L 48.89624 10.58385 L 55.5625 10.58385 L 55.5625 21.166667 L 42.333333 25.135417 L 37.373946 41.254329 C 16.511363 43.51555 5.2916667 48.828009 5.2916667 60.854167 L 5.2916667 146.84375 C 5.2916667 166.68748 9.2604167 182.5625 9.2604167 182.5625 L 11.90625 182.5625 L 17.197917 220.92708 L 43.65625 220.92708 L 43.65625 228.86458 C 43.65625 231.05646 45.433122 232.83333 47.625 232.83333 C 49.816878 232.83333 51.59375 231.05646 51.59375 228.86458 L 51.59375 220.92708 L 107.15625 220.92708 L 107.15625 228.86458 C 107.15625 231.05646 108.93312 232.83333 111.125 232.83333 C 113.31688 232.83333 115.09375 231.05646 115.09375 228.86458 L 115.09375 220.92708 L 141.55208 220.92708 L 146.84375 182.5625 L 149.48958 182.5625 C 149.48958 182.5625 153.45833 166.68748 153.45833 146.84375 L 153.45833 60.854167 C 153.45833 48.828047 142.23851 43.515562 121.37605 41.254329 L 116.41667 25.135417 L 103.1875 21.166667 L 103.1875 10.58385 L 109.85376 10.58385 L 119.64283 22.820312 A 2.6458349 2.6458349 0 0 0 123.36146 23.232174 A 2.6458349 2.6458349 0 0 0 123.77332 19.513538 L 113.19154 6.2854045 A 2.6460995 2.6460995 0 0 0 111.125 5.2911499 L 47.625 5.2911499 z M 60.854167 10.58385 L 97.895833 10.58385 L 97.895833 20.653003 C 93.552968 20.278663 87.065113 19.84375 79.375 19.84375 C 71.684887 19.84375 65.197032 20.278663 60.854167 20.653003 L 60.854167 10.58385 z " />
  </g>
  <g
     inkscape:groupmode="layer"
     id="layer2"
     inkscape:label="レイヤー 2"
     style="display:inline">
    <text
       xml:space="preserve"
       style="font-style:normal;font-variant:normal;font-weight:bold;font-stretch:normal;font-size:158.75px;line-height:1.25;font-family:'キカカナ23';-inkscape-font-specification:'キカカナ23 Bold';fill:#ffffff;fill-opacity:1;stroke-width:0.264583"
       x="23.8125"
       y="178.59375"
       id="text8"><tspan
         sodipodi:role="line"
         id="tspan8"
         style="font-style:normal;font-variant:normal;font-weight:bold;font-stretch:normal;font-size:158.75px;font-family:'キカカナ23';-inkscape-font-specification:'キカカナ23 Bold';fill:#ffffff;fill-opacity:1;stroke-width:0.264583"
         x="23.8125"
         y="178.59375">？</tspan></text>
  </g>
  <g
     inkscape:groupmode="layer"
     id="layer3"
     inkscape:label="レイヤー 3">
    <path
       style="fill:none;stroke:#ff3333;stroke-width:26.45833333;stroke-linecap:round;stroke-linejoin:round;stroke-opacity:1;paint-order:normal"
       d="M 13.229167,52.916667 145.52083,185.20833"
       id="path1"
       sodipodi:nodetypes="cc" />
    <path
       style="fill:none;stroke:#ff3333;stroke-width:26.45833333;stroke-linecap:round;stroke-linejoin:round;stroke-opacity:1;paint-order:normal"
       d="M 145.52083,52.916667 13.229167,185.20833"
       id="path1-3"
       sodipodi:nodetypes="cc" />
  </g>
  <metadata
     id="metadata824">
    <rdf:RDF>
      <cc:Work
         rdf:about="">
        <cc:license
           rdf:resource="http://creativecommons.org/publicdomain/zero/1.0/" />
      </cc:Work>
      <cc:License
         rdf:about="http://creativecommons.org/publicdomain/zero/1.0/">
        <cc:permits
           rdf:resource="http://creativecommons.org/ns#Reproduction" />
        <cc:permits
           rdf:resource="http://creativecommons.org/ns#Distribution" />
        <cc:permits
           rdf:resource="http://creativecommons.org/ns#DerivativeWorks" />
      </cc:License>
    </rdf:RDF>
  </metadata>
</svg>
