<?xml version="1.0" encoding="UTF-8" standalone="no"?>
<!-- Created with Inkscape (http://www.inkscape.org/) -->

<svg
   width="180"
   height="180"
   viewBox="0 0 47.624999 47.625002"
   version="1.1"
   id="svg5"
   inkscape:version="1.3 (0e150ed6c4, 2023-07-21)"
   sodipodi:docname="検索エラー.svg"
   inkscape:export-filename="検索エラー.webp"
   inkscape:export-xdpi="96"
   inkscape:export-ydpi="96"
   xmlns:inkscape="http://www.inkscape.org/namespaces/inkscape"
   xmlns:sodipodi="http://sodipodi.sourceforge.net/DTD/sodipodi-0.dtd"
   xmlns="http://www.w3.org/2000/svg"
   xmlns:svg="http://www.w3.org/2000/svg"
   xmlns:rdf="http://www.w3.org/1999/02/22-rdf-syntax-ns#"
   xmlns:cc="http://creativecommons.org/ns#">
  <sodipodi:namedview
     id="namedview7"
     pagecolor="#ffffff"
     bordercolor="#666666"
     borderopacity="1.0"
     inkscape:pageshadow="2"
     inkscape:pageopacity="0.0"
     inkscape:pagecheckerboard="false"
     inkscape:document-units="px"
     showgrid="false"
     units="px"
     inkscape:zoom="2.9148709"
     inkscape:cx="118.35859"
     inkscape:cy="116.30018"
     inkscape:window-width="1920"
     inkscape:window-height="1008"
     inkscape:window-x="0"
     inkscape:window-y="0"
     inkscape:window-maximized="1"
     inkscape:current-layer="layer1"
     inkscape:showpageshadow="2"
     inkscape:deskcolor="#d1d1d1"
     showguides="true"
     inkscape:lockguides="false" />
  <defs
     id="defs2" />
  <g
     inkscape:label="レイヤー 1"
     inkscape:groupmode="layer"
     id="layer1">
    <path
       id="path4"
       style="fill:#999999;fill-opacity:0.6;stroke-width:0.79375;stroke-linecap:round;stroke-linejoin:round;paint-order:stroke fill markers"
       inkscape:label="path1"
       d="M 22.489584 1.3229167 A 21.166668 21.166668 0 0 0 1.3229167 22.489584 A 21.166668 21.166668 0 0 0 22.489584 43.65625 A 21.166668 21.166668 0 0 0 34.546212 39.837879 L 42.333334 47.625 L 47.625 42.333334 L 39.837879 34.546212 A 21.166668 21.166668 0 0 0 43.65625 22.489584 A 21.166668 21.166668 0 0 0 22.489584 1.3229167 z M 22.489584 5.2916667 A 17.197916 17.197916 0 0 1 39.6875 22.489584 A 17.197916 17.197916 0 0 1 22.489584 39.6875 A 17.197916 17.197916 0 0 1 5.2916667 22.489584 A 17.197916 17.197916 0 0 1 22.489584 5.2916667 z " />
    <path
       style="fill:#999999;fill-opacity:0.6;stroke-width:0.79375;stroke-linecap:round;stroke-linejoin:round;paint-order:stroke fill markers"
       d="m 19.182292,10.583333 0.661458,17.197918 h 5.291667 l 0.661459,-17.197918 z"
       id="path3"
       sodipodi:nodetypes="ccccc" />
    <path
       id="rect3"
       style="fill:#999999;fill-opacity:0.6;stroke-width:0.79375;stroke-linecap:round;stroke-linejoin:round;paint-order:stroke fill markers"
       d="m 19.843751,30.427084 v 3.96875 h 5.291666 v -3.96875 z"
       inkscape:label="path4" />
  </g>
  <metadata
     id="metadata824">
    <rdf:RDF>
      <cc:Work
         rdf:about="">
        <cc:license
           rdf:resource="http://creativecommons.org/publicdomain/zero/1.0/" />
      </cc:Work>
      <cc:License
         rdf:about="http://creativecommons.org/publicdomain/zero/1.0/">
        <cc:permits
           rdf:resource="http://creativecommons.org/ns#Reproduction" />
        <cc:permits
           rdf:resource="http://creativecommons.org/ns#Distribution" />
        <cc:permits
           rdf:resource="http://creativecommons.org/ns#DerivativeWorks" />
      </cc:License>
    </rdf:RDF>
  </metadata>
</svg>
