<?xml version="1.0" encoding="UTF-8" standalone="no"?>
<!-- Created with Inkscape (http://www.inkscape.org/) -->

<svg
   width="80"
   height="80"
   viewBox="0 0 21.166666 21.166667"
   version="1.1"
   id="svg5"
   inkscape:version="1.3 (0e150ed6c4, 2023-07-21)"
   sodipodi:docname="編成表.svg"
   inkscape:export-filename="編成表.webp"
   inkscape:export-xdpi="96"
   inkscape:export-ydpi="96"
   xmlns:inkscape="http://www.inkscape.org/namespaces/inkscape"
   xmlns:sodipodi="http://sodipodi.sourceforge.net/DTD/sodipodi-0.dtd"
   xmlns="http://www.w3.org/2000/svg"
   xmlns:svg="http://www.w3.org/2000/svg"
   xmlns:rdf="http://www.w3.org/1999/02/22-rdf-syntax-ns#"
   xmlns:cc="http://creativecommons.org/ns#">
  <sodipodi:namedview
     id="namedview7"
     pagecolor="#ffffff"
     bordercolor="#666666"
     borderopacity="1.0"
     inkscape:pageshadow="2"
     inkscape:pageopacity="0.0"
     inkscape:pagecheckerboard="false"
     inkscape:document-units="px"
     showgrid="false"
     units="px"
     inkscape:zoom="5.8297418"
     inkscape:cx="42.368943"
     inkscape:cy="58.664691"
     inkscape:window-width="1920"
     inkscape:window-height="1052"
     inkscape:window-x="1920"
     inkscape:window-y="0"
     inkscape:window-maximized="1"
     inkscape:current-layer="layer1"
     inkscape:showpageshadow="2"
     inkscape:deskcolor="#d1d1d1" />
  <defs
     id="defs2" />
  <g
     inkscape:label="レイヤー 1"
     inkscape:groupmode="layer"
     id="layer1">
    <path
       id="rect1"
       style="fill:#ff55dd;fill-opacity:0.74902;stroke-width:1.5875;stroke-linejoin:round;paint-order:stroke fill markers"
       d="m 5.2911499,1.3229167 c -0.090204,-10e-8 -0.1776909,0.030365 -0.2480469,0.086816 L 2.3983032,3.5269165 c -0.1979583,0.1588857 -0.1979583,0.4601979 0,0.6190836 L 4.6555297,5.953125 H 1.0583333 C 0.47383194,5.9531251 0,6.426957 0,7.0114583 v 8.4666667 c 2.2091382e-7,0.584501 0.47383211,1.058333 1.0583333,1.058333 H 2.1497396 C 1.7918692,16.883754 1.5891687,17.360693 1.5875,17.859375 c -4e-7,1.022874 0.82921,1.852083 1.8520833,1.852083 1.0228736,0 1.8520838,-0.829209 1.8520834,-1.852083 -1.74e-4,-0.497852 -0.2007746,-0.974671 -0.5565552,-1.322917 h 1.3833781 c -0.3578708,0.347296 -0.5605709,0.824235 -0.5622396,1.322917 -4e-7,1.022874 0.8292097,1.852083 1.8520833,1.852083 1.0228737,0 1.8520837,-0.829209 1.8520833,-1.852083 -1.74e-4,-0.497852 -0.2007745,-0.974671 -0.5565551,-1.322917 h 3.7646275 c -0.357868,0.347296 -0.56057,0.824235 -0.562239,1.322917 0,1.022874 0.829209,1.852083 1.852083,1.852083 1.022874,0 1.852083,-0.829209 1.852083,-1.852083 -1.74e-4,-0.497852 -0.200773,-0.974671 -0.556555,-1.322917 h 1.383378 c -0.357872,0.347296 -0.56057,0.824235 -0.562239,1.322917 0,1.022874 0.829209,1.852083 1.852083,1.852083 1.022874,0 1.852083,-0.829209 1.852083,-1.852083 -1.74e-4,-0.497852 -0.200773,-0.974671 -0.556555,-1.322917 h 1.085722 c 0.584501,0 1.058333,-0.473832 1.058333,-1.058333 V 7.0114583 c 0,-0.5845012 -0.473832,-1.0583331 -1.058333,-1.0583333 H 16.51062 l 2.258777,-1.8071249 c 0.197959,-0.1588857 0.197959,-0.4601979 0,-0.6190836 l -2.64635,-2.1171834 c -0.0725,-0.058036 -0.160273,-0.086816 -0.248047,-0.086816 -0.08777,0 -0.175549,0.028781 -0.248047,0.086816 l -2.64635,2.1171834 c -0.197959,0.1588857 -0.197959,0.4601979 0,0.6190836 L 15.23938,5.953125 H 5.92677 L 8.1855468,4.1460001 c 0.1979583,-0.1588857 0.1979583,-0.4601979 0,-0.6190836 L 5.5391967,1.4097331 C 5.4688407,1.3532818 5.3813535,1.3229167 5.2911499,1.3229167 Z m 0,0.9048543 L 7.3029134,3.8374918 5.2911499,5.4446289 3.2814534,3.8374918 Z m 10.5838501,0 2.011763,1.6097208 L 15.875,5.4446289 13.863236,3.8374918 Z"
       sodipodi:nodetypes="sccccsscsccsccccsccccsccccsccssssccccsccccccccscccccccccc" />
  </g>
  <metadata
     id="metadata824">
    <rdf:RDF>
      <cc:Work
         rdf:about="">
        <cc:license
           rdf:resource="http://creativecommons.org/publicdomain/zero/1.0/" />
      </cc:Work>
      <cc:License
         rdf:about="http://creativecommons.org/publicdomain/zero/1.0/">
        <cc:permits
           rdf:resource="http://creativecommons.org/ns#Reproduction" />
        <cc:permits
           rdf:resource="http://creativecommons.org/ns#Distribution" />
        <cc:permits
           rdf:resource="http://creativecommons.org/ns#DerivativeWorks" />
      </cc:License>
    </rdf:RDF>
  </metadata>
</svg>
