<?xml version="1.0" encoding="UTF-8" standalone="no"?>
<svg
   width="56"
   height="56"
   viewBox="0 0 14.816666 14.816667"
   version="1.1"
   id="svg8"
   inkscape:version="1.4.2 (ebf0e940d0, 2025-05-08)"
   sodipodi:docname="虫眼鏡.svg"
   inkscape:export-filename="虫眼鏡.webp"
   inkscape:export-xdpi="96"
   inkscape:export-ydpi="96"
   xmlns:inkscape="http://www.inkscape.org/namespaces/inkscape"
   xmlns:sodipodi="http://sodipodi.sourceforge.net/DTD/sodipodi-0.dtd"
   xmlns="http://www.w3.org/2000/svg"
   xmlns:svg="http://www.w3.org/2000/svg"
   xmlns:rdf="http://www.w3.org/1999/02/22-rdf-syntax-ns#"
   xmlns:cc="http://creativecommons.org/ns#"
   xmlns:dc="http://purl.org/dc/elements/1.1/">
  <defs
     id="defs2" />
  <sodipodi:namedview
     id="base"
     pagecolor="#ffffff"
     bordercolor="#666666"
     borderopacity="1.0"
     inkscape:pageopacity="0.0"
     inkscape:pageshadow="2"
     inkscape:zoom="11.313708"
     inkscape:cx="33.366601"
     inkscape:cy="30.670757"
     inkscape:document-units="px"
     inkscape:current-layer="layer1"
     inkscape:document-rotation="0"
     showgrid="false"
     units="px"
     inkscape:window-width="1920"
     inkscape:window-height="1052"
     inkscape:window-x="1920"
     inkscape:window-y="0"
     inkscape:window-maximized="1"
     inkscape:pagecheckerboard="0"
     inkscape:showpageshadow="2"
     inkscape:deskcolor="#d1d1d1" />
  <metadata
     id="metadata5">
    <rdf:RDF>
      <cc:Work
         rdf:about="">
        <dc:format>image/svg+xml</dc:format>
        <dc:type
           rdf:resource="http://purl.org/dc/dcmitype/StillImage" />
        <cc:license
           rdf:resource="http://creativecommons.org/publicdomain/zero/1.0/" />
      </cc:Work>
      <cc:License
         rdf:about="http://creativecommons.org/publicdomain/zero/1.0/">
        <cc:permits
           rdf:resource="http://creativecommons.org/ns#Reproduction" />
        <cc:permits
           rdf:resource="http://creativecommons.org/ns#Distribution" />
        <cc:permits
           rdf:resource="http://creativecommons.org/ns#DerivativeWorks" />
      </cc:License>
    </rdf:RDF>
  </metadata>
  <g
     inkscape:label="レイヤー 1"
     inkscape:groupmode="layer"
     id="layer1">
    <path
       id="path1"
       style="fill:#999999;fill-opacity:0.6;stroke:none;stroke-width:1.05834;stroke-linejoin:round;paint-order:stroke markers fill"
       d="M 6.6145832,1.8520833 A 4.7624998,4.7625003 0 0 0 1.8520833,6.6145832 4.7624998,4.7625003 0 0 0 6.6145832,11.377083 4.7624998,4.7625003 0 0 0 9.5870116,10.335286 l 2.6479004,2.6479 0.748274,-0.748274 -2.6479,-2.6479004 A 4.7624998,4.7625003 0 0 0 11.377083,6.6145832 4.7624998,4.7625003 0 0 0 6.6145832,1.8520833 Z m 0,1.0583333 A 3.7041667,3.7041664 0 0 1 10.31875,6.6145832 3.7041667,3.7041664 0 0 1 6.6145832,10.31875 3.7041667,3.7041664 0 0 1 2.9104166,6.6145832 3.7041667,3.7041664 0 0 1 6.6145832,2.9104166 Z" />
  </g>
</svg>
