<?xml version="1.0" encoding="UTF-8" standalone="no"?>
<!-- Created with Inkscape (http://www.inkscape.org/) -->

<svg
   width="900"
   height="900"
   viewBox="0 0 238.125 238.125"
   version="1.1"
   id="svg5"
   inkscape:version="1.3 (0e150ed6c4, 2023-07-21)"
   sodipodi:docname="アイコン_走行位置.svg"
   inkscape:export-filename="走行位置.webp"
   inkscape:export-xdpi="8.5333338"
   inkscape:export-ydpi="8.5333338"
   xmlns:inkscape="http://www.inkscape.org/namespaces/inkscape"
   xmlns:sodipodi="http://sodipodi.sourceforge.net/DTD/sodipodi-0.dtd"
   xmlns="http://www.w3.org/2000/svg"
   xmlns:svg="http://www.w3.org/2000/svg"
   xmlns:rdf="http://www.w3.org/1999/02/22-rdf-syntax-ns#"
   xmlns:cc="http://creativecommons.org/ns#">
  <sodipodi:namedview
     id="namedview7"
     pagecolor="#ffffff"
     bordercolor="#666666"
     borderopacity="1.0"
     inkscape:pageshadow="2"
     inkscape:pageopacity="0.0"
     inkscape:pagecheckerboard="false"
     inkscape:document-units="px"
     showgrid="false"
     units="px"
     inkscape:zoom="0.51528125"
     inkscape:cx="374.55273"
     inkscape:cy="378.43411"
     inkscape:window-width="1920"
     inkscape:window-height="1052"
     inkscape:window-x="1920"
     inkscape:window-y="0"
     inkscape:window-maximized="1"
     inkscape:current-layer="layer1"
     inkscape:showpageshadow="2"
     inkscape:deskcolor="#d1d1d1"
     showguides="true"
     inkscape:lockguides="true">
    <sodipodi:guide
       position="0,68.791667"
       orientation="0,1"
       id="guide1"
       inkscape:locked="true"
       inkscape:label=""
       inkscape:color="rgb(0,134,229)" />
    <sodipodi:guide
       position="0,195.79167"
       orientation="0,1"
       id="guide2"
       inkscape:locked="true"
       inkscape:label=""
       inkscape:color="rgb(0,134,229)" />
    <sodipodi:guide
       position="31.75,211.66667"
       orientation="-1,0"
       id="guide3"
       inkscape:locked="true"
       inkscape:label=""
       inkscape:color="rgb(0,134,229)" />
    <sodipodi:guide
       position="127,211.66667"
       orientation="-1,0"
       id="guide4"
       inkscape:locked="true"
       inkscape:label=""
       inkscape:color="rgb(0,134,229)" />
    <sodipodi:guide
       position="66.145833,238.125"
       orientation="-1,0"
       id="guide6"
       inkscape:locked="true"
       inkscape:label=""
       inkscape:color="rgb(0,134,229)" />
    <sodipodi:guide
       position="92.604167,238.125"
       orientation="-1,0"
       id="guide7"
       inkscape:locked="true"
       inkscape:label=""
       inkscape:color="rgb(0,134,229)" />
  </sodipodi:namedview>
  <defs
     id="defs2" />
  <g
     inkscape:label="レイヤー 1"
     inkscape:groupmode="layer"
     id="layer1">
    <path
       id="rect4"
       style="fill:#dd57ff;fill-opacity:0.75;stroke:none;stroke-width:0;stroke-linecap:round;stroke-linejoin:round;stroke-dasharray:none;paint-order:stroke fill markers"
       d="M 87.312502,5.2911499 A 2.6460995,2.6460995 0 0 0 85.245961,6.2854045 L 74.664178,19.513538 a 2.6458349,2.6458349 0 0 0 0.411862,3.718636 2.6458349,2.6458349 0 0 0 3.718636,-0.411862 L 88.583742,10.58385 h 6.66626 v 10.582817 l -13.229167,3.96875 -4.959387,16.118912 c -20.862562,2.261219 -32.08228,7.573692 -32.08228,19.599838 v 85.989583 c 0,19.84371 3.96875,35.71875 3.96875,35.71875 h 2.645834 l 5.291667,38.36458 h 26.458333 v 7.9375 c 0,2.19188 1.776874,3.96875 3.96875,3.96875 2.191876,0 3.96875,-1.77687 3.96875,-3.96875 v -7.9375 h 55.562498 v 7.9375 c 0,2.19188 1.77687,3.96875 3.96875,3.96875 2.19188,0 3.96875,-1.77687 3.96875,-3.96875 v -7.9375 h 26.45833 l 5.29167,-38.36458 h 2.64583 c 0,0 3.96875,-15.87504 3.96875,-35.71875 V 60.854167 c 0,-12.026108 -11.21984,-17.338607 -32.08228,-19.599838 L 156.10417,25.135417 142.875,21.166667 V 10.58385 h 6.66626 l 9.78907,12.236462 a 2.6458349,2.6458349 0 0 0 3.71863,0.411862 2.6458349,2.6458349 0 0 0 0.41186,-3.718636 L 152.87904,6.2854045 A 2.6460995,2.6460995 0 0 0 150.8125,5.2911499 Z M 100.54167,10.58385 h 37.04166 v 10.069153 c -4.34286,-0.37434 -10.83072,-0.809253 -18.52083,-0.809253 -7.6901,0 -14.17797,0.434913 -18.52083,0.809253 z" />
  </g>
  <metadata
     id="metadata824">
    <rdf:RDF>
      <cc:Work
         rdf:about="">
        <cc:license
           rdf:resource="http://creativecommons.org/publicdomain/zero/1.0/" />
      </cc:Work>
      <cc:License
         rdf:about="http://creativecommons.org/publicdomain/zero/1.0/">
        <cc:permits
           rdf:resource="http://creativecommons.org/ns#Reproduction" />
        <cc:permits
           rdf:resource="http://creativecommons.org/ns#Distribution" />
        <cc:permits
           rdf:resource="http://creativecommons.org/ns#DerivativeWorks" />
      </cc:License>
    </rdf:RDF>
  </metadata>
</svg>
