<?xml version="1.0" encoding="UTF-8" standalone="no"?>
<!-- Created with Inkscape (http://www.inkscape.org/) -->

<svg
   width="120"
   height="120"
   viewBox="0 0 31.75 31.750001"
   version="1.1"
   id="svg5"
   inkscape:version="1.3 (0e150ed6c4, 2023-07-21)"
   sodipodi:docname="路線切り替えアイコン.svg"
   inkscape:export-filename="路線切り替えアイコン.webp"
   inkscape:export-xdpi="96"
   inkscape:export-ydpi="96"
   xmlns:inkscape="http://www.inkscape.org/namespaces/inkscape"
   xmlns:sodipodi="http://sodipodi.sourceforge.net/DTD/sodipodi-0.dtd"
   xmlns="http://www.w3.org/2000/svg"
   xmlns:svg="http://www.w3.org/2000/svg"
   xmlns:rdf="http://www.w3.org/1999/02/22-rdf-syntax-ns#"
   xmlns:cc="http://creativecommons.org/ns#">
  <sodipodi:namedview
     id="namedview7"
     pagecolor="#ffffff"
     bordercolor="#666666"
     borderopacity="1.0"
     inkscape:pageshadow="2"
     inkscape:pageopacity="0.0"
     inkscape:pagecheckerboard="false"
     inkscape:document-units="px"
     showgrid="false"
     units="px"
     inkscape:zoom="5.8297419"
     inkscape:cx="42.883545"
     inkscape:cy="54.719404"
     inkscape:window-width="1920"
     inkscape:window-height="1052"
     inkscape:window-x="1920"
     inkscape:window-y="0"
     inkscape:window-maximized="1"
     inkscape:current-layer="layer1"
     inkscape:showpageshadow="2"
     inkscape:deskcolor="#d1d1d1"
     showguides="true"
     inkscape:lockguides="false">
    <sodipodi:guide
       position="0,26.458334"
       orientation="0,1"
       id="guide1"
       inkscape:locked="false"
       inkscape:label=""
       inkscape:color="rgb(0,134,229)" />
    <sodipodi:guide
       position="13.229167,31.750001"
       orientation="-1,0"
       id="guide2"
       inkscape:locked="false"
       inkscape:label=""
       inkscape:color="rgb(0,134,229)" />
    <sodipodi:guide
       position="18.520834,31.750001"
       orientation="-1,0"
       id="guide3"
       inkscape:locked="false"
       inkscape:label=""
       inkscape:color="rgb(0,134,229)" />
    <sodipodi:guide
       position="15.875,15.875"
       orientation="0.8660254,-0.5"
       id="guide4"
       inkscape:locked="false"
       inkscape:label=""
       inkscape:color="rgb(0,134,229)" />
    <sodipodi:guide
       position="15.875,15.875"
       orientation="-0.8660254,-0.5"
       id="guide5"
       inkscape:locked="false"
       inkscape:label=""
       inkscape:color="rgb(0,134,229)" />
    <sodipodi:guide
       position="0,4.7625001"
       orientation="0,1"
       id="guide6"
       inkscape:locked="false"
       inkscape:label=""
       inkscape:color="rgb(0,134,229)" />
  </sodipodi:namedview>
  <defs
     id="defs2" />
  <g
     inkscape:label="レイヤー 1"
     inkscape:groupmode="layer"
     id="layer1">
    <path
       id="path3"
       style="color:#000000;fill:#cccccc;fill-opacity:1;stroke-linecap:square;-inkscape-stroke:none"
       d="M 10.833447 23.01875 L 8.5421144 26.9875 L 10.374561 26.9875 L 12.666411 23.01875 L 10.833447 23.01875 z M 19.08204 23.01875 L 21.373889 26.9875 L 23.206336 26.9875 L 20.915003 23.01875 L 19.08204 23.01875 z " />
    <path
       id="path1"
       style="fill:#cccccc;fill-opacity:1;stroke-width:1.05833;stroke-linecap:round;stroke-linejoin:round"
       d="m 13.890625,5.0270834 c -0.188222,0 -0.345244,0.1311409 -0.386023,0.306958 C 10.903426,5.45917 7.9375001,5.9566625 7.9375001,7.9375001 V 19.84375 h 0.5291667 l 0.5291666,2.645833 H 22.754166 L 23.283333,19.84375 H 23.8125 V 7.9375001 c 0,-1.9800597 -2.963562,-2.4780864 -5.564002,-2.6034587 -0.03603,-0.1733285 -0.192516,-0.306958 -0.375171,-0.306958 z m 0.529166,0.2645833 c 0.365314,-3e-7 0.661459,0.2961464 0.661459,0.6614584 0,0.3653116 -0.296145,0.6614587 -0.661459,0.6614583 -0.365308,-2e-7 -0.661458,-0.2961471 -0.661458,-0.6614583 0,-0.3653117 0.29615,-0.6614582 0.661458,-0.6614584 z m 2.910417,0 c 0.365313,2e-7 0.661458,0.2961467 0.661458,0.6614584 0,0.3653112 -0.296145,0.6614581 -0.661458,0.6614583 -0.365313,-2e-7 -0.661458,-0.2961471 -0.661458,-0.6614583 0,-0.3653117 0.296145,-0.6614582 0.661458,-0.6614584 z M 9.5250001,9.5250001 h 2.9104169 c 0.292246,0 0.529166,0.2369178 0.529166,0.5291669 v 3.439583 c 0,0.292245 -0.23692,0.529166 -0.529166,0.529166 H 9.5250001 c -0.2922489,0 -0.5291667,-0.236921 -0.5291667,-0.529166 v -3.439583 c 0,-0.2922494 0.2369175,-0.5291669 0.5291667,-0.5291669 z m 5.4239579,0 h 1.852084 c 0.292251,0 0.529167,0.2369174 0.529167,0.5291669 v 3.439583 c 0,0.292246 -0.236916,0.529166 -0.529167,0.529166 h -1.852084 c -0.292245,0 -0.529166,-0.236921 -0.529166,-0.529166 v -3.439583 c 0,-0.2922491 0.236921,-0.5291669 0.529166,-0.5291669 z m 4.365625,0 H 22.225 c 0.292249,0 0.529166,0.2369174 0.529166,0.5291669 v 3.439583 c 0,0.292246 -0.236917,0.529166 -0.529166,0.529166 h -2.910417 c -0.292251,0 -0.529167,-0.23692 -0.529167,-0.529166 v -3.439583 c 0,-0.2922495 0.236916,-0.5291669 0.529167,-0.5291669 z M 9.2604168,17.991666 h 0.7937502 v 0.529168 H 9.2604168 Z m 12.4354162,0 h 0.793751 l 0,0.529168 h -0.793751 z m -11.1125,1.852084 h 2.645833 v 1.5875 h 5.291667 v -1.5875 h 2.645833 l -0.42323,2.116666 h -9.736873 z m 3.439583,0 h 0.79375 v 1.058333 h -0.79375 z m 2.910417,0 h 0.79375 v 1.058333 h -0.79375 z"
       sodipodi:nodetypes="scsccccccscsssssssssssssssssssssssssssssssssssssssccccccccccccccccccccccccccccc" />
  </g>
  <metadata
     id="metadata824">
    <rdf:RDF>
      <cc:Work
         rdf:about="">
        <cc:license
           rdf:resource="http://creativecommons.org/publicdomain/zero/1.0/" />
      </cc:Work>
      <cc:License
         rdf:about="http://creativecommons.org/publicdomain/zero/1.0/">
        <cc:permits
           rdf:resource="http://creativecommons.org/ns#Reproduction" />
        <cc:permits
           rdf:resource="http://creativecommons.org/ns#Distribution" />
        <cc:permits
           rdf:resource="http://creativecommons.org/ns#DerivativeWorks" />
      </cc:License>
    </rdf:RDF>
  </metadata>
</svg>
