<?xml version="1.0" encoding="UTF-8" standalone="no"?>
<!-- Created with Inkscape (http://www.inkscape.org/) -->

<svg
   width="80"
   height="80"
   viewBox="0 0 21.166666 21.166667"
   version="1.1"
   id="svg5"
   inkscape:version="1.3 (0e150ed6c4, 2023-07-21)"
   sodipodi:docname="運用表.svg"
   inkscape:export-filename="運用表.webp"
   inkscape:export-xdpi="96"
   inkscape:export-ydpi="96"
   xmlns:inkscape="http://www.inkscape.org/namespaces/inkscape"
   xmlns:sodipodi="http://sodipodi.sourceforge.net/DTD/sodipodi-0.dtd"
   xmlns="http://www.w3.org/2000/svg"
   xmlns:svg="http://www.w3.org/2000/svg"
   xmlns:rdf="http://www.w3.org/1999/02/22-rdf-syntax-ns#"
   xmlns:cc="http://creativecommons.org/ns#">
  <sodipodi:namedview
     id="namedview7"
     pagecolor="#ffffff"
     bordercolor="#666666"
     borderopacity="1.0"
     inkscape:pageshadow="2"
     inkscape:pageopacity="0.0"
     inkscape:pagecheckerboard="false"
     inkscape:document-units="px"
     showgrid="false"
     units="px"
     inkscape:zoom="4.12225"
     inkscape:cx="37.600825"
     inkscape:cy="36.873067"
     inkscape:window-width="1920"
     inkscape:window-height="1052"
     inkscape:window-x="1920"
     inkscape:window-y="0"
     inkscape:window-maximized="1"
     inkscape:current-layer="layer1"
     inkscape:showpageshadow="2"
     inkscape:deskcolor="#d1d1d1" />
  <defs
     id="defs2" />
  <g
     inkscape:label="レイヤー 1"
     inkscape:groupmode="layer"
     id="layer1">
    <path
       id="path1"
       style="fill:#ddff55;fill-opacity:0.74901962;stroke-width:0.79375;stroke-linecap:round;stroke-linejoin:round;stroke-opacity:0.74902;paint-order:stroke fill markers"
       d="M 1.5875 0 A 1.5875 1.5875 0 0 0 0 1.5875 L 0 4.4979166 L 6.3499999 4.4979166 L 6.3499999 0 L 1.5875 0 z M 7.4083333 0 L 7.4083333 4.4979166 L 13.758333 4.4979166 L 13.758333 0 L 7.4083333 0 z M 14.816667 0 L 14.816667 4.4979166 L 21.166666 4.4979166 L 21.166666 1.5875 A 1.5875 1.5875 0 0 0 19.579167 0 L 14.816667 0 z M 0 5.55625 L 0 10.054167 L 6.3499999 10.054167 L 6.3499999 5.55625 L 0 5.55625 z M 7.4083333 5.55625 L 7.4083333 10.054167 L 13.758333 10.054167 L 13.758333 5.55625 L 7.4083333 5.55625 z M 14.816667 5.55625 L 14.816667 10.054167 L 21.166666 10.054167 L 21.166666 5.55625 L 14.816667 5.55625 z M 0 11.1125 L 0 15.610417 L 6.3499999 15.610417 L 6.3499999 11.1125 L 0 11.1125 z M 7.4083333 11.1125 L 7.4083333 15.610417 L 13.758333 15.610417 L 13.758333 11.1125 L 7.4083333 11.1125 z M 14.816667 11.1125 L 14.816667 15.610417 L 21.166666 15.610417 L 21.166666 11.1125 L 14.816667 11.1125 z M 0 16.66875 L 0 19.579167 A 1.5875 1.5875 0 0 0 1.5875 21.166666 L 6.3499999 21.166666 L 6.3499999 16.66875 L 0 16.66875 z M 7.4083333 16.66875 L 7.4083333 21.166666 L 13.758333 21.166666 L 13.758333 16.66875 L 7.4083333 16.66875 z M 14.816667 16.66875 L 14.816667 21.166666 L 19.579167 21.166666 A 1.5875 1.5875 0 0 0 21.166666 19.579167 L 21.166666 16.66875 L 14.816667 16.66875 z " />
  </g>
  <metadata
     id="metadata824">
    <rdf:RDF>
      <cc:Work
         rdf:about="">
        <cc:license
           rdf:resource="http://creativecommons.org/publicdomain/zero/1.0/" />
      </cc:Work>
      <cc:License
         rdf:about="http://creativecommons.org/publicdomain/zero/1.0/">
        <cc:permits
           rdf:resource="http://creativecommons.org/ns#Reproduction" />
        <cc:permits
           rdf:resource="http://creativecommons.org/ns#Distribution" />
        <cc:permits
           rdf:resource="http://creativecommons.org/ns#DerivativeWorks" />
      </cc:License>
    </rdf:RDF>
  </metadata>
</svg>
